M48
;Layer_Color=9474304
;FILE_FORMAT=4:4
METRIC,LZ
;TYPE=PLATED
T1F00S00C0.3000
T2F00S00C0.6000
T4F00S00C1.0000
%
T01
X00316661Y00028436
X00398374Y00019454
X00480184Y00019195
X00440045Y000985
X00440358Y00112203
X00358391Y00112163
X00358455Y000985
X00346685Y00207819
X00334396Y002205
X00305Y002225
X00294404Y002585
X00334745Y002545
X0036129Y00256392
X00351349Y002885
X00417917Y00282744
X00244603Y00270426
X00239777Y00244937
X00239366Y00231198
X00253866Y00235898
X00276407Y00211634
X00259875Y00180581
X00266253Y00171941
X00248433Y00187358
X00234306Y00192739
X00214236Y00174546
X00187969Y00178006
X00188361Y00163287
X00170063Y00153911
X001585Y00154205
X001545Y001305
Y001195
X001655
Y001305
X00188886Y00120142
X00200553Y00109209
X0018775Y00087797
X00176338Y00095094
X00146405Y00094553
X001275Y00086028
X00104568Y00100141
X000855Y00084639
X00141591Y00060831
X0019064Y00041384
X00194452Y000275
X00195044Y00013587
X0021225Y00086462
X002285Y0008365
X00241859Y0005784
X00276699Y0002885
X0020043Y00146261
X00128361Y00162591
X00117959Y0015655
X00142247Y00187983
X00144Y00211
X00155
Y00222
X00166
Y00211
Y00233
X00155
X00144
Y00222
X00118187Y00225054
X00116159Y00216758
X00081947Y00206507
X00065886Y00206656
X00074367Y00191571
X00060627Y00233033
X00068Y00259274
X00097354Y00276
X00114219Y00276455
X00123915Y00261031
X00129137Y00252651
X00144412Y0025991
X00157553Y00259514
X0016616Y00256339
X00157114Y00284001
X00199334Y00285426
T02
X0038365Y002246
Y002373
Y0025
Y002627
Y002754
X0039635
Y002627
Y0025
Y002373
Y002246
X001454Y000327
Y0002
X001327
Y000327
X0012
Y0002
X001073
Y000327
X000946
Y0002
T04
X004423Y001692
Y001946
X004677
Y0022
Y002454
X004423
Y002708
X004677
X004423Y0022
X004677Y001692
M30
