G04*
G04 #@! TF.GenerationSoftware,Altium Limited,Altium Designer,21.6.1 (37)*
G04*
G04 Layer_Physical_Order=3*
G04 Layer_Color=128*
%FSLAX44Y44*%
%MOMM*%
G71*
G04*
G04 #@! TF.SameCoordinates,EB5C24EC-25F4-4F86-8BBE-D8D07956753C*
G04*
G04*
G04 #@! TF.FilePolarity,Negative*
G04*
G01*
G75*
%ADD68C,1.0160*%
%ADD69C,1.5000*%
G04:AMPARAMS|DCode=71|XSize=1.5mm|YSize=1.5mm|CornerRadius=0mm|HoleSize=0mm|Usage=FLASHONLY|Rotation=0.000|XOffset=0mm|YOffset=0mm|HoleType=Round|Shape=Relief|Width=0.16mm|Gap=0.2mm|Entries=4|*
%AMTHD71*
7,0,0,1.5000,1.1000,0.1600,45*
%
%ADD71THD71*%
%ADD72C,1.1000*%
%ADD77C,0.8000*%
G04:AMPARAMS|DCode=78|XSize=1.2mm|YSize=1.2mm|CornerRadius=0mm|HoleSize=0mm|Usage=FLASHONLY|Rotation=0.000|XOffset=0mm|YOffset=0mm|HoleType=Round|Shape=Relief|Width=0.16mm|Gap=0.2mm|Entries=4|*
%AMTHD78*
7,0,0,1.2000,0.8000,0.1600,45*
%
%ADD78THD78*%
%ADD79O,1.1500X1.3500*%
%ADD80O,1.6500X1.1500*%
D68*
X0Y20000D02*
G03*
X20000Y0I20000J0D01*
G01*
X480000Y0D02*
G03*
X500000Y20000I0J20000D01*
G01*
Y280000D02*
G03*
X480000Y300000I-20000J0D01*
G01*
X20000D02*
G03*
X0Y280000I0J-20000D01*
G01*
X20000Y0D02*
X480000D01*
X500000Y20000D02*
Y280000D01*
X20000Y300000D02*
X480000D01*
X0Y20000D02*
Y280000D01*
D69*
X467700Y194600D02*
D03*
X442300D02*
D03*
X467700Y245400D02*
D03*
X442300D02*
D03*
Y270800D02*
D03*
X467700D02*
D03*
X442300Y220000D02*
D03*
X467700D02*
D03*
X442300Y169200D02*
D03*
X467700D02*
D03*
D71*
X94600Y20000D02*
D03*
D72*
X145400D02*
D03*
Y32700D02*
D03*
X132700Y20000D02*
D03*
Y32700D02*
D03*
X120000Y20000D02*
D03*
Y32700D02*
D03*
X107300Y20000D02*
D03*
Y32700D02*
D03*
X94600D02*
D03*
X383650Y275400D02*
D03*
X396350D02*
D03*
Y262700D02*
D03*
X383650D02*
D03*
X396350Y250000D02*
D03*
X383650D02*
D03*
X396350Y237300D02*
D03*
X383650D02*
D03*
X396350Y224600D02*
D03*
X383650D02*
D03*
D77*
X141591Y60831D02*
D03*
X239777Y244937D02*
D03*
X104568Y100141D02*
D03*
X176338Y95094D02*
D03*
X417917Y282744D02*
D03*
X253866Y235898D02*
D03*
X239366Y231198D02*
D03*
X276407Y211634D02*
D03*
X305000Y222500D02*
D03*
X117959Y156550D02*
D03*
X60627Y233033D02*
D03*
X74367Y191571D02*
D03*
X81947Y206507D02*
D03*
X65886Y206656D02*
D03*
X361290Y256392D02*
D03*
X346685Y207819D02*
D03*
X128361Y162591D02*
D03*
X188361Y163287D02*
D03*
X170063Y153911D02*
D03*
X200430Y146261D02*
D03*
X146405Y94553D02*
D03*
X155000Y222000D02*
D03*
X166000Y211000D02*
D03*
X155000D02*
D03*
X144000D02*
D03*
X166000Y222000D02*
D03*
X144000D02*
D03*
X166000Y233000D02*
D03*
X155000D02*
D03*
X144000D02*
D03*
X154500Y119500D02*
D03*
Y130500D02*
D03*
X165500Y119500D02*
D03*
Y130500D02*
D03*
X200553Y109209D02*
D03*
X358391Y112163D02*
D03*
X440358Y112203D02*
D03*
X480184Y19195D02*
D03*
X398374Y19454D02*
D03*
X248433Y187358D02*
D03*
X157114Y284001D02*
D03*
X157553Y259514D02*
D03*
X166160Y256339D02*
D03*
X129137Y252651D02*
D03*
X144412Y259910D02*
D03*
X114219Y276455D02*
D03*
X266253Y171941D02*
D03*
X118187Y225054D02*
D03*
X188886Y120142D02*
D03*
X259875Y180581D02*
D03*
X116159Y216758D02*
D03*
X234306Y192739D02*
D03*
X187969Y178006D02*
D03*
X241859Y57840D02*
D03*
X142247Y187983D02*
D03*
X194452Y27500D02*
D03*
X214236Y174546D02*
D03*
X276699Y28850D02*
D03*
X316661Y28436D02*
D03*
X187750Y87797D02*
D03*
X68000Y259274D02*
D03*
X97354Y276000D02*
D03*
X199334Y285426D02*
D03*
D78*
X190640Y41384D02*
D03*
X85500Y84639D02*
D03*
X351349Y288500D02*
D03*
X127500Y86028D02*
D03*
X123915Y261031D02*
D03*
X158500Y154205D02*
D03*
X228500Y83650D02*
D03*
X294404Y258500D02*
D03*
X195044Y13587D02*
D03*
X212250Y86462D02*
D03*
X440045Y98500D02*
D03*
X358455Y98500D02*
D03*
X334396Y220500D02*
D03*
X334745Y254500D02*
D03*
X244603Y270426D02*
D03*
D79*
X48500Y105000D02*
D03*
Y55000D02*
D03*
Y195000D02*
D03*
Y245000D02*
D03*
D80*
X21500Y115000D02*
D03*
Y45000D02*
D03*
Y185000D02*
D03*
Y255000D02*
D03*
M02*
