G04*
G04 #@! TF.GenerationSoftware,Altium Limited,Altium Designer,21.6.1 (37)*
G04*
G04 Layer_Physical_Order=4*
G04 Layer_Color=16711680*
%FSLAX44Y44*%
%MOMM*%
G71*
G04*
G04 #@! TF.SameCoordinates,EB5C24EC-25F4-4F86-8BBE-D8D07956753C*
G04*
G04*
G04 #@! TF.FilePolarity,Positive*
G04*
G01*
G75*
%ADD14C,1.0000*%
%ADD60C,0.1600*%
%ADD61C,2.0000*%
%ADD62R,2.0000X2.0000*%
%ADD63R,1.0000X1.0000*%
G04:AMPARAMS|DCode=64|XSize=1.25mm|YSize=1.05mm|CornerRadius=0.525mm|HoleSize=0mm|Usage=FLASHONLY|Rotation=270.000|XOffset=0mm|YOffset=0mm|HoleType=Round|Shape=RoundedRectangle|*
%AMROUNDEDRECTD64*
21,1,1.2500,0.0000,0,0,270.0*
21,1,0.2000,1.0500,0,0,270.0*
1,1,1.0500,0.0000,-0.1000*
1,1,1.0500,0.0000,0.1000*
1,1,1.0500,0.0000,0.1000*
1,1,1.0500,0.0000,-0.1000*
%
%ADD64ROUNDEDRECTD64*%
G04:AMPARAMS|DCode=65|XSize=1.55mm|YSize=1.05mm|CornerRadius=0.525mm|HoleSize=0mm|Usage=FLASHONLY|Rotation=180.000|XOffset=0mm|YOffset=0mm|HoleType=Round|Shape=RoundedRectangle|*
%AMROUNDEDRECTD65*
21,1,1.5500,0.0000,0,0,180.0*
21,1,0.5000,1.0500,0,0,180.0*
1,1,1.0500,-0.2500,0.0000*
1,1,1.0500,0.2500,0.0000*
1,1,1.0500,0.2500,0.0000*
1,1,1.0500,-0.2500,0.0000*
%
%ADD65ROUNDEDRECTD65*%
%ADD66R,1.0000X1.0000*%
%ADD67C,0.6000*%
G36*
X477808Y297808D02*
X478814Y297136D01*
X480000Y296900D01*
Y296900D01*
X480014Y296913D01*
X483300Y296590D01*
X486473Y295627D01*
X489397Y294064D01*
X491960Y291960D01*
X494064Y289397D01*
X495627Y286473D01*
X496589Y283300D01*
X496913Y280014D01*
X496900Y280000D01*
X496900D01*
X497136Y278814D01*
X497808Y277808D01*
X497920Y277734D01*
Y22266D01*
X497808Y22192D01*
X497136Y21186D01*
X496900Y20000D01*
X496900D01*
X496913Y19986D01*
X496590Y16700D01*
X495627Y13527D01*
X494064Y10603D01*
X491960Y8040D01*
X489397Y5936D01*
X486473Y4373D01*
X483300Y3411D01*
X480014Y3087D01*
X480000Y3100D01*
Y3100D01*
X478814Y2864D01*
X477808Y2192D01*
X477734Y2080D01*
X22266D01*
X22192Y2192D01*
X21186Y2864D01*
X20000Y3100D01*
Y3100D01*
X19986Y3087D01*
X16700Y3411D01*
X13527Y4373D01*
X10603Y5936D01*
X8040Y8040D01*
X5936Y10603D01*
X4373Y13527D01*
X3411Y16700D01*
X3087Y19986D01*
X3100Y20000D01*
X3100D01*
X2864Y21186D01*
X2192Y22192D01*
X2080Y22266D01*
Y250000D01*
Y277734D01*
X2192Y277808D01*
X2864Y278814D01*
X3100Y280000D01*
X3100D01*
X3087Y280014D01*
X3411Y283300D01*
X4373Y286473D01*
X5936Y289397D01*
X8040Y291960D01*
X10603Y294064D01*
X13527Y295627D01*
X16700Y296590D01*
X19986Y296913D01*
X20000Y296900D01*
Y296900D01*
X21186Y297136D01*
X22192Y297808D01*
X22266Y297920D01*
X477734Y297920D01*
X477808Y297808D01*
D02*
G37*
%LPC*%
G36*
X417917Y288393D02*
X415756Y287963D01*
X413923Y286738D01*
X413768Y286506D01*
X413629Y286385D01*
X413506Y286291D01*
X413405Y286224D01*
X413325Y286179D01*
X413268Y286153D01*
X413234Y286141D01*
X413219Y286137D01*
X413219Y286137D01*
X413094Y286131D01*
X412667Y286023D01*
X412235Y285937D01*
X412179Y285900D01*
X412114Y285884D01*
X411761Y285620D01*
X411395Y285376D01*
X411357Y285320D01*
X411304Y285280D01*
X411214Y285130D01*
X406520D01*
X405463Y286187D01*
X404689Y286704D01*
X403776Y286886D01*
X392581D01*
X391668Y286704D01*
X390894Y286187D01*
X388747Y284041D01*
X388545Y284089D01*
X388307Y284051D01*
X388067Y284062D01*
X387813Y283971D01*
X387547Y283928D01*
X387342Y283802D01*
X387116Y283720D01*
X386916Y283539D01*
X386687Y283398D01*
X386195Y282940D01*
X376110D01*
Y267860D01*
X376670D01*
X377231Y266721D01*
X377064Y266502D01*
X376304Y264668D01*
X376212Y263970D01*
X383650D01*
Y261430D01*
X376212D01*
X376304Y260732D01*
X377064Y258897D01*
X378272Y257322D01*
X378712Y256985D01*
Y255715D01*
X378272Y255378D01*
X377064Y253803D01*
X376304Y251968D01*
X376212Y251270D01*
X383650D01*
Y248730D01*
X376212D01*
X376304Y248032D01*
X377064Y246197D01*
X378272Y244622D01*
X378712Y244285D01*
Y243015D01*
X378272Y242678D01*
X377064Y241103D01*
X376304Y239268D01*
X376045Y237300D01*
X376304Y235332D01*
X377064Y233498D01*
X378272Y231922D01*
X378712Y231585D01*
Y230315D01*
X378272Y229978D01*
X377064Y228403D01*
X376304Y226568D01*
X376212Y225870D01*
X383650D01*
Y224600D01*
X384920D01*
Y217162D01*
X385618Y217254D01*
X387453Y218014D01*
X389028Y219222D01*
X389365Y219662D01*
X390635D01*
X390972Y219222D01*
X392547Y218014D01*
X394382Y217254D01*
X396350Y216995D01*
X398318Y217254D01*
X400153Y218014D01*
X401728Y219222D01*
X402936Y220798D01*
X403696Y222632D01*
X403955Y224600D01*
X403696Y226568D01*
X402936Y228403D01*
X401728Y229978D01*
X401288Y230315D01*
Y231585D01*
X401728Y231922D01*
X402936Y233498D01*
X403696Y235332D01*
X403955Y237300D01*
X403696Y239268D01*
X402936Y241103D01*
X401728Y242678D01*
X401288Y243015D01*
Y244285D01*
X401728Y244622D01*
X402936Y246197D01*
X403696Y248032D01*
X403955Y250000D01*
X403696Y251968D01*
X402936Y253803D01*
X401728Y255378D01*
X401288Y255715D01*
Y256985D01*
X401728Y257322D01*
X402936Y258897D01*
X403696Y260732D01*
X403955Y262700D01*
X403696Y264668D01*
X402936Y266502D01*
X401728Y268078D01*
X401288Y268415D01*
Y269685D01*
X401728Y270022D01*
X401798Y270114D01*
X402206Y270516D01*
X403062Y271268D01*
X403389Y271515D01*
X403695Y271719D01*
X403948Y271863D01*
X404141Y271952D01*
X404263Y271994D01*
X404309Y272005D01*
X404483Y272018D01*
X404876Y272128D01*
X405277Y272207D01*
X405360Y272263D01*
X405456Y272290D01*
X405777Y272542D01*
X406117Y272769D01*
X406172Y272852D01*
X406251Y272914D01*
X406308Y273014D01*
X421021D01*
X421935Y273196D01*
X422709Y273713D01*
X428587Y279591D01*
X429760Y279105D01*
Y258260D01*
X437259D01*
X437512Y256990D01*
X435976Y256354D01*
X433356Y254344D01*
X431346Y251724D01*
X430083Y248674D01*
X429819Y246670D01*
X442300D01*
Y244130D01*
X429819D01*
X430083Y242126D01*
X431346Y239076D01*
X433356Y236456D01*
X435976Y234446D01*
X438533Y233387D01*
Y232013D01*
X435976Y230954D01*
X433356Y228944D01*
X431346Y226324D01*
X430083Y223274D01*
X429819Y221270D01*
X442300D01*
Y218730D01*
X429819D01*
X430083Y216726D01*
X431346Y213676D01*
X433356Y211056D01*
X435976Y209046D01*
X438533Y207987D01*
Y206613D01*
X435976Y205554D01*
X433356Y203544D01*
X431346Y200924D01*
X430083Y197874D01*
X429652Y194600D01*
X430083Y191326D01*
X431346Y188276D01*
X433356Y185656D01*
X435976Y183646D01*
X438533Y182587D01*
Y181213D01*
X435976Y180154D01*
X433356Y178144D01*
X431346Y175524D01*
X430083Y172474D01*
X429819Y170470D01*
X442300D01*
Y169200D01*
X443570D01*
Y156719D01*
X445574Y156983D01*
X448624Y158246D01*
X451244Y160256D01*
X453254Y162876D01*
X454313Y165433D01*
X455687D01*
X456746Y162876D01*
X458756Y160256D01*
X461376Y158246D01*
X464426Y156983D01*
X467700Y156552D01*
X470974Y156983D01*
X474024Y158246D01*
X476644Y160256D01*
X478654Y162876D01*
X479917Y165926D01*
X480348Y169200D01*
X479917Y172474D01*
X478654Y175524D01*
X476644Y178144D01*
X474024Y180154D01*
X471467Y181213D01*
Y182587D01*
X474024Y183646D01*
X476644Y185656D01*
X478654Y188276D01*
X479917Y191326D01*
X480348Y194600D01*
X479917Y197874D01*
X478654Y200924D01*
X476644Y203544D01*
X474024Y205554D01*
X471467Y206613D01*
Y207987D01*
X474024Y209046D01*
X476644Y211056D01*
X478654Y213676D01*
X479917Y216726D01*
X480348Y220000D01*
X479917Y223274D01*
X478654Y226324D01*
X476644Y228944D01*
X474024Y230954D01*
X471467Y232013D01*
Y233387D01*
X474024Y234446D01*
X476644Y236456D01*
X478654Y239076D01*
X479917Y242126D01*
X480348Y245400D01*
X479917Y248674D01*
X478654Y251724D01*
X476644Y254344D01*
X474024Y256354D01*
X471467Y257413D01*
Y258787D01*
X474024Y259846D01*
X476644Y261856D01*
X478654Y264476D01*
X479917Y267526D01*
X480348Y270800D01*
X479917Y274074D01*
X478654Y277124D01*
X476644Y279744D01*
X474024Y281754D01*
X470974Y283017D01*
X467700Y283448D01*
X467407Y283410D01*
X464817Y283516D01*
X462282Y283770D01*
X461294Y283932D01*
X460453Y284118D01*
X459796Y284313D01*
X459337Y284497D01*
X459089Y284635D01*
X458817Y284854D01*
X458522Y285008D01*
X458251Y285201D01*
X458078Y285240D01*
X457922Y285322D01*
X457590Y285352D01*
X457266Y285426D01*
X457091Y285396D01*
X456915Y285412D01*
X456874Y285399D01*
X454719Y287553D01*
X453945Y288071D01*
X453032Y288252D01*
X431488D01*
X430575Y288071D01*
X429801Y287553D01*
X424705Y282458D01*
X423504Y283053D01*
X423136Y284906D01*
X421912Y286738D01*
X420079Y287963D01*
X417917Y288393D01*
D02*
G37*
G36*
X351349Y294149D02*
X349188Y293719D01*
X347355Y292494D01*
X346130Y290662D01*
X345701Y288500D01*
X346130Y286338D01*
X347355Y284506D01*
X349188Y283281D01*
X351349Y282852D01*
X353511Y283281D01*
X355343Y284506D01*
X356568Y286338D01*
X356998Y288500D01*
X356568Y290662D01*
X355343Y292494D01*
X353511Y293719D01*
X351349Y294149D01*
D02*
G37*
G36*
X244603Y276074D02*
X242441Y275644D01*
X240609Y274420D01*
X239384Y272587D01*
X238954Y270426D01*
X239384Y268264D01*
X240609Y266432D01*
X242441Y265207D01*
X244603Y264777D01*
X246764Y265207D01*
X248597Y266432D01*
X249821Y268264D01*
X250251Y270426D01*
X249821Y272587D01*
X248597Y274420D01*
X246764Y275644D01*
X244603Y276074D01*
D02*
G37*
G36*
X24000Y262857D02*
X22770D01*
Y256270D01*
X31690D01*
X31590Y257034D01*
X30805Y258929D01*
X29556Y260556D01*
X27929Y261805D01*
X26034Y262589D01*
X24000Y262857D01*
D02*
G37*
G36*
X20230D02*
X19000D01*
X16966Y262589D01*
X15071Y261805D01*
X13444Y260556D01*
X12196Y258929D01*
X11410Y257034D01*
X11310Y256270D01*
X20230D01*
Y262857D01*
D02*
G37*
G36*
X294404Y264149D02*
X292242Y263718D01*
X290410Y262494D01*
X289185Y260662D01*
X288755Y258500D01*
X289185Y256338D01*
X290410Y254506D01*
X292242Y253281D01*
X294404Y252852D01*
X296565Y253281D01*
X298398Y254506D01*
X299622Y256338D01*
X300052Y258500D01*
X299622Y260662D01*
X298398Y262494D01*
X296565Y263718D01*
X294404Y264149D01*
D02*
G37*
G36*
X334745Y260149D02*
X332584Y259719D01*
X330751Y258494D01*
X329527Y256662D01*
X329097Y254500D01*
X329527Y252338D01*
X330751Y250506D01*
X332584Y249281D01*
X334745Y248852D01*
X336907Y249281D01*
X338739Y250506D01*
X339964Y252338D01*
X340394Y254500D01*
X339964Y256662D01*
X338739Y258494D01*
X336907Y259719D01*
X334745Y260149D01*
D02*
G37*
G36*
X31690Y253730D02*
X22770D01*
Y247143D01*
X24000D01*
X26034Y247411D01*
X27929Y248195D01*
X29556Y249444D01*
X30805Y251071D01*
X31590Y252966D01*
X31690Y253730D01*
D02*
G37*
G36*
X20230D02*
X11310D01*
X11410Y252966D01*
X12196Y251071D01*
X13444Y249444D01*
X15071Y248195D01*
X16966Y247411D01*
X19000Y247143D01*
X20230D01*
Y253730D01*
D02*
G37*
G36*
X49770Y253690D02*
Y246270D01*
X56322D01*
X56090Y248034D01*
X55304Y249929D01*
X54056Y251556D01*
X52429Y252805D01*
X50534Y253589D01*
X49770Y253690D01*
D02*
G37*
G36*
X47230D02*
X46466Y253589D01*
X44571Y252805D01*
X42944Y251556D01*
X41695Y249929D01*
X40911Y248034D01*
X40678Y246270D01*
X47230D01*
Y253690D01*
D02*
G37*
G36*
Y243730D02*
X40678D01*
X40911Y241966D01*
X41695Y240071D01*
X42944Y238444D01*
X44571Y237195D01*
X46466Y236411D01*
X47230Y236310D01*
Y243730D01*
D02*
G37*
G36*
X56322D02*
X49770D01*
Y236310D01*
X50534Y236411D01*
X52429Y237195D01*
X54056Y238444D01*
X55304Y240071D01*
X56090Y241966D01*
X56322Y243730D01*
D02*
G37*
G36*
X382380Y223330D02*
X376212D01*
X376304Y222632D01*
X377064Y220798D01*
X378272Y219222D01*
X379847Y218014D01*
X381682Y217254D01*
X382380Y217162D01*
Y223330D01*
D02*
G37*
G36*
X253866Y241546D02*
X251705Y241116D01*
X249872Y239892D01*
X248648Y238059D01*
X248218Y235898D01*
X248648Y233736D01*
X249872Y231903D01*
X251705Y230679D01*
X253866Y230249D01*
X256028Y230679D01*
X257861Y231903D01*
X258016Y232136D01*
X258155Y232257D01*
X258278Y232351D01*
X258379Y232418D01*
X258459Y232463D01*
X258515Y232489D01*
X258550Y232501D01*
X258565Y232505D01*
X258565Y232505D01*
X258690Y232511D01*
X259117Y232619D01*
X259549Y232705D01*
X259604Y232742D01*
X259669Y232759D01*
X260023Y233022D01*
X260389Y233266D01*
X260426Y233322D01*
X260480Y233362D01*
X260569Y233512D01*
X290614D01*
X295940Y228186D01*
X295940Y228186D01*
X298573Y225553D01*
X298531Y225383D01*
X298540Y225317D01*
X298527Y225252D01*
X298613Y224820D01*
X298677Y224384D01*
X298711Y224326D01*
X298724Y224261D01*
X298969Y223894D01*
X299195Y223516D01*
X299278Y223424D01*
X299279Y223423D01*
X299286Y223410D01*
X299302Y223377D01*
X299324Y223319D01*
X299349Y223230D01*
X299373Y223111D01*
X299393Y222958D01*
X299406Y222775D01*
X299352Y222500D01*
X299781Y220338D01*
X301006Y218506D01*
X302838Y217281D01*
X305000Y216852D01*
X307162Y217281D01*
X308994Y218506D01*
X310219Y220338D01*
X310648Y222500D01*
X310219Y224662D01*
X308994Y226494D01*
X307162Y227719D01*
X305000Y228148D01*
X304725Y228094D01*
X304542Y228107D01*
X304389Y228127D01*
X304270Y228151D01*
X304181Y228176D01*
X304123Y228198D01*
X304090Y228214D01*
X304077Y228221D01*
X303984Y228305D01*
X303606Y228531D01*
X303239Y228776D01*
X303174Y228789D01*
X303116Y228823D01*
X302680Y228887D01*
X302248Y228973D01*
X302183Y228960D01*
X302117Y228969D01*
X301947Y228927D01*
X299314Y231560D01*
X299314Y231560D01*
X293289Y237585D01*
X292515Y238102D01*
X291602Y238284D01*
X260569D01*
X260480Y238433D01*
X260426Y238473D01*
X260389Y238529D01*
X260023Y238774D01*
X259669Y239037D01*
X259604Y239053D01*
X259549Y239090D01*
X259117Y239176D01*
X258690Y239284D01*
X258565Y239290D01*
X258565Y239291D01*
X258550Y239294D01*
X258515Y239307D01*
X258459Y239333D01*
X258379Y239377D01*
X258278Y239445D01*
X258155Y239538D01*
X258016Y239659D01*
X257861Y239892D01*
X256028Y241116D01*
X253866Y241546D01*
D02*
G37*
G36*
X334396Y226148D02*
X332234Y225718D01*
X330402Y224494D01*
X329178Y222662D01*
X328748Y220500D01*
X329178Y218338D01*
X330402Y216506D01*
X332234Y215281D01*
X334396Y214851D01*
X336558Y215281D01*
X338390Y216506D01*
X339615Y218338D01*
X340045Y220500D01*
X339615Y222662D01*
X338390Y224494D01*
X336558Y225718D01*
X334396Y226148D01*
D02*
G37*
G36*
X239366Y236847D02*
X237204Y236417D01*
X235372Y235192D01*
X234147Y233360D01*
X233717Y231198D01*
X234147Y229037D01*
X235372Y227204D01*
X237204Y225980D01*
X239366Y225550D01*
X239641Y225604D01*
X239824Y225591D01*
X239977Y225571D01*
X240096Y225547D01*
X240184Y225522D01*
X240243Y225500D01*
X240276Y225485D01*
X240289Y225477D01*
X240382Y225393D01*
X240760Y225167D01*
X241126Y224923D01*
X241192Y224910D01*
X241250Y224875D01*
X241685Y224811D01*
X242118Y224725D01*
X242183Y224739D01*
X242249Y224729D01*
X242418Y224772D01*
X257243Y209947D01*
X258017Y209430D01*
X258930Y209248D01*
X269704D01*
X269794Y209098D01*
X269848Y209058D01*
X269885Y209003D01*
X270251Y208758D01*
X270604Y208495D01*
X270669Y208479D01*
X270725Y208441D01*
X271157Y208356D01*
X271584Y208248D01*
X271709Y208241D01*
X271709Y208241D01*
X271724Y208237D01*
X271758Y208225D01*
X271815Y208199D01*
X271895Y208154D01*
X271996Y208087D01*
X272119Y207993D01*
X272258Y207873D01*
X272413Y207640D01*
X274246Y206416D01*
X276407Y205986D01*
X278569Y206416D01*
X280401Y207640D01*
X281626Y209473D01*
X282056Y211634D01*
X281626Y213796D01*
X280401Y215628D01*
X278569Y216853D01*
X276407Y217283D01*
X274246Y216853D01*
X272413Y215628D01*
X272258Y215395D01*
X272119Y215275D01*
X271996Y215181D01*
X271895Y215114D01*
X271815Y215069D01*
X271758Y215043D01*
X271724Y215031D01*
X271709Y215027D01*
X271709Y215027D01*
X271584Y215021D01*
X271157Y214913D01*
X270725Y214827D01*
X270669Y214790D01*
X270604Y214773D01*
X270251Y214510D01*
X269885Y214265D01*
X269848Y214210D01*
X269794Y214170D01*
X269704Y214020D01*
X259918D01*
X245793Y228146D01*
X245835Y228315D01*
X245826Y228381D01*
X245839Y228447D01*
X245753Y228879D01*
X245689Y229314D01*
X245655Y229372D01*
X245641Y229438D01*
X245397Y229804D01*
X245171Y230182D01*
X245088Y230275D01*
X245087Y230275D01*
X245079Y230288D01*
X245064Y230321D01*
X245042Y230380D01*
X245017Y230468D01*
X244993Y230587D01*
X244973Y230740D01*
X244960Y230924D01*
X245014Y231198D01*
X244584Y233360D01*
X243360Y235192D01*
X241528Y236417D01*
X239366Y236847D01*
D02*
G37*
G36*
X49770Y203690D02*
Y196270D01*
X56322D01*
X56090Y198034D01*
X55304Y199929D01*
X54056Y201556D01*
X52429Y202805D01*
X50534Y203589D01*
X49770Y203690D01*
D02*
G37*
G36*
X47230D02*
X46466Y203589D01*
X44571Y202805D01*
X42944Y201556D01*
X41695Y199929D01*
X40911Y198034D01*
X40678Y196270D01*
X47230D01*
Y203690D01*
D02*
G37*
G36*
X56322Y193730D02*
X49770D01*
Y186310D01*
X50534Y186411D01*
X52429Y187195D01*
X54056Y188444D01*
X55304Y190071D01*
X56090Y191966D01*
X56322Y193730D01*
D02*
G37*
G36*
X47230D02*
X40678D01*
X40911Y191966D01*
X41695Y190071D01*
X42944Y188444D01*
X44571Y187195D01*
X46466Y186411D01*
X47230Y186310D01*
Y193730D01*
D02*
G37*
G36*
X24000Y192857D02*
X22770D01*
Y186270D01*
X31690D01*
X31590Y187034D01*
X30805Y188929D01*
X29556Y190556D01*
X27929Y191805D01*
X26034Y192589D01*
X24000Y192857D01*
D02*
G37*
G36*
X20230D02*
X19000D01*
X16966Y192589D01*
X15071Y191805D01*
X13444Y190556D01*
X12196Y188929D01*
X11410Y187034D01*
X11310Y186270D01*
X20230D01*
Y192857D01*
D02*
G37*
G36*
X142247Y193632D02*
X140085Y193202D01*
X138253Y191978D01*
X137028Y190145D01*
X136598Y187983D01*
X136653Y187709D01*
X136640Y187525D01*
X136620Y187372D01*
X136595Y187253D01*
X136571Y187165D01*
X136549Y187106D01*
X136533Y187073D01*
X136525Y187060D01*
X136525Y187060D01*
X136442Y186967D01*
X136216Y186589D01*
X135971Y186223D01*
X135958Y186157D01*
X135924Y186100D01*
X135860Y185664D01*
X135774Y185232D01*
X135787Y185166D01*
X135778Y185100D01*
X135820Y184931D01*
X134129Y183240D01*
X133612Y182466D01*
X133431Y181553D01*
Y89410D01*
X132161Y89025D01*
X131494Y90022D01*
X129662Y91247D01*
X127500Y91676D01*
X125338Y91247D01*
X123506Y90022D01*
X122281Y88189D01*
X121852Y86028D01*
X122281Y83866D01*
X123506Y82034D01*
X125338Y80809D01*
X127500Y80379D01*
X129662Y80809D01*
X131494Y82034D01*
X132719Y83866D01*
X132781Y84180D01*
X134129Y84448D01*
X134129Y84448D01*
X188025Y30553D01*
X187982Y30384D01*
X187992Y30317D01*
X187979Y30252D01*
X188065Y29820D01*
X188129Y29384D01*
X188163Y29326D01*
X188176Y29260D01*
X188421Y28894D01*
X188646Y28516D01*
X188730Y28424D01*
X188730Y28423D01*
X188738Y28410D01*
X188754Y28377D01*
X188775Y28319D01*
X188800Y28231D01*
X188824Y28111D01*
X188845Y27958D01*
X188858Y27775D01*
X188803Y27500D01*
X189233Y25338D01*
X190457Y23506D01*
X192290Y22281D01*
X194452Y21851D01*
X196613Y22281D01*
X198446Y23506D01*
X199670Y25338D01*
X200100Y27500D01*
X199670Y29662D01*
X198446Y31494D01*
X196613Y32719D01*
X194452Y33149D01*
X194177Y33094D01*
X193993Y33107D01*
X193841Y33127D01*
X193721Y33152D01*
X193633Y33176D01*
X193575Y33198D01*
X193541Y33214D01*
X193528Y33221D01*
X193528Y33222D01*
X193435Y33305D01*
X193057Y33531D01*
X192691Y33776D01*
X192625Y33789D01*
X192568Y33823D01*
X192132Y33887D01*
X191882Y33937D01*
X191294Y34657D01*
X191461Y35364D01*
X191814Y35969D01*
X192801Y36165D01*
X194634Y37390D01*
X195858Y39222D01*
X196288Y41384D01*
X195858Y43546D01*
X194634Y45378D01*
X192801Y46603D01*
X190640Y47032D01*
X188478Y46603D01*
X186646Y45378D01*
X185421Y43546D01*
X185115Y42007D01*
X183758Y41567D01*
X138202Y87123D01*
Y180565D01*
X139194Y181557D01*
X139363Y181514D01*
X139430Y181524D01*
X139495Y181511D01*
X139927Y181597D01*
X140363Y181660D01*
X140421Y181695D01*
X140486Y181708D01*
X140853Y181953D01*
X141231Y182178D01*
X141323Y182262D01*
X141324Y182262D01*
X141337Y182270D01*
X141370Y182285D01*
X141428Y182307D01*
X141516Y182332D01*
X141636Y182356D01*
X141789Y182376D01*
X141972Y182390D01*
X142247Y182335D01*
X144408Y182765D01*
X146241Y183989D01*
X147465Y185822D01*
X147895Y187983D01*
X147465Y190145D01*
X146241Y191978D01*
X144408Y193202D01*
X142247Y193632D01*
D02*
G37*
G36*
X31690Y183730D02*
X22770D01*
Y177143D01*
X24000D01*
X26034Y177411D01*
X27929Y178195D01*
X29556Y179444D01*
X30805Y181071D01*
X31590Y182966D01*
X31690Y183730D01*
D02*
G37*
G36*
X20230D02*
X11310D01*
X11410Y182966D01*
X12196Y181071D01*
X13444Y179444D01*
X15071Y178195D01*
X16966Y177411D01*
X19000Y177143D01*
X20230D01*
Y183730D01*
D02*
G37*
G36*
X179189Y279625D02*
X126529D01*
X125616Y279443D01*
X124842Y278926D01*
X109218Y263302D01*
X108701Y262528D01*
X108519Y261615D01*
Y222013D01*
X108701Y221100D01*
X109218Y220326D01*
X109733Y219811D01*
X109690Y219642D01*
X109700Y219575D01*
X109687Y219510D01*
X109773Y219078D01*
X109836Y218642D01*
X109871Y218584D01*
X109884Y218519D01*
X110128Y218152D01*
X110354Y217774D01*
X110438Y217682D01*
X110438Y217682D01*
X110446Y217668D01*
X110462Y217635D01*
X110483Y217577D01*
X110508Y217489D01*
X110532Y217369D01*
X110552Y217217D01*
X110565Y217033D01*
X110511Y216758D01*
X110941Y214597D01*
X112165Y212764D01*
X113998Y211540D01*
X116159Y211110D01*
X118321Y211540D01*
X120154Y212764D01*
X121378Y214597D01*
X121808Y216758D01*
X121378Y218920D01*
X120637Y220028D01*
X122181Y221060D01*
X123406Y222892D01*
X123836Y225054D01*
X123406Y227215D01*
X122181Y229048D01*
X121439Y229544D01*
X121277Y229711D01*
X121085Y229844D01*
X121001Y229911D01*
X120963Y229948D01*
X120961Y229987D01*
X120909Y230189D01*
X120905Y230398D01*
X120785Y230674D01*
X120711Y230966D01*
X120586Y231133D01*
X120503Y231324D01*
X120286Y231534D01*
X120105Y231775D01*
X119960Y231861D01*
Y255663D01*
X121081Y256262D01*
X121753Y255813D01*
X122906Y255583D01*
X123862Y254855D01*
X123799Y254209D01*
X123489Y252651D01*
X123919Y250490D01*
X125143Y248657D01*
X126976Y247433D01*
X129137Y247003D01*
X131299Y247433D01*
X133131Y248657D01*
X133293Y248899D01*
X133307Y248913D01*
X133445Y249034D01*
X133565Y249127D01*
X133665Y249193D01*
X133742Y249237D01*
X133796Y249262D01*
X133829Y249274D01*
X133842Y249277D01*
X133966Y249283D01*
X134401Y249393D01*
X134840Y249483D01*
X134888Y249516D01*
X134945Y249531D01*
X135306Y249799D01*
X135676Y250050D01*
X135709Y250099D01*
X135756Y250134D01*
X135845Y250284D01*
X146138D01*
X147051Y250465D01*
X147825Y250983D01*
X152164Y255322D01*
X153559Y255520D01*
X155391Y254296D01*
X157553Y253866D01*
X159627Y254278D01*
X160631Y254307D01*
X160941Y254178D01*
X162166Y252345D01*
X163998Y251121D01*
X166160Y250691D01*
X166435Y250745D01*
X166618Y250732D01*
X166771Y250712D01*
X166891Y250688D01*
X166979Y250663D01*
X167037Y250641D01*
X167070Y250626D01*
X167083Y250618D01*
X167176Y250534D01*
X167554Y250308D01*
X167920Y250064D01*
X167986Y250051D01*
X168044Y250016D01*
X168480Y249953D01*
X168912Y249867D01*
X168977Y249880D01*
X169044Y249870D01*
X169954Y249002D01*
Y159538D01*
X167901Y159130D01*
X166069Y157905D01*
X165020Y156335D01*
X163905Y156362D01*
X163674Y156433D01*
X162494Y158199D01*
X160662Y159424D01*
X158500Y159853D01*
X156338Y159424D01*
X154506Y158199D01*
X153281Y156367D01*
X152851Y154205D01*
X153281Y152043D01*
X154506Y150211D01*
X156338Y148986D01*
X158500Y148556D01*
X160662Y148986D01*
X162494Y150211D01*
X163543Y151781D01*
X164658Y151754D01*
X164889Y151683D01*
X166069Y149917D01*
X167901Y148693D01*
X170063Y148263D01*
X172224Y148693D01*
X172897Y149142D01*
X174017Y148543D01*
Y132625D01*
X174198Y131712D01*
X174716Y130938D01*
X182459Y123195D01*
X182416Y123026D01*
X182426Y122960D01*
X182413Y122894D01*
X182499Y122462D01*
X182563Y122026D01*
X182597Y121969D01*
X182610Y121903D01*
X182855Y121537D01*
X183081Y121159D01*
X183164Y121066D01*
X183164Y121066D01*
X183172Y121052D01*
X183188Y121019D01*
X183209Y120961D01*
X183234Y120873D01*
X183258Y120754D01*
X183279Y120601D01*
X183292Y120417D01*
X183237Y120142D01*
X183667Y117981D01*
X184891Y116148D01*
X186724Y114924D01*
X188886Y114494D01*
X189273Y114571D01*
X189889Y113417D01*
X189320Y112693D01*
X162159D01*
X161246Y112511D01*
X160472Y111994D01*
X149458Y100980D01*
X149289Y101023D01*
X149222Y101013D01*
X149157Y101026D01*
X148725Y100940D01*
X148289Y100876D01*
X148231Y100842D01*
X148166Y100829D01*
X147799Y100584D01*
X147421Y100358D01*
X147329Y100275D01*
X147329Y100275D01*
X147315Y100267D01*
X147282Y100251D01*
X147224Y100230D01*
X147136Y100205D01*
X147016Y100181D01*
X146863Y100160D01*
X146680Y100147D01*
X146405Y100202D01*
X144243Y99772D01*
X142411Y98547D01*
X141187Y96715D01*
X140757Y94553D01*
X141187Y92392D01*
X142411Y90559D01*
X144243Y89335D01*
X146405Y88905D01*
X148567Y89335D01*
X150399Y90559D01*
X151624Y92392D01*
X152054Y94553D01*
X151999Y94828D01*
X152012Y95012D01*
X152032Y95165D01*
X152057Y95284D01*
X152081Y95372D01*
X152103Y95430D01*
X152119Y95463D01*
X152127Y95477D01*
X152210Y95569D01*
X152436Y95948D01*
X152681Y96314D01*
X152694Y96379D01*
X152728Y96437D01*
X152792Y96873D01*
X152878Y97305D01*
X152865Y97371D01*
X152874Y97437D01*
X152832Y97606D01*
X163147Y107921D01*
X190443D01*
X191356Y108103D01*
X192130Y108620D01*
X202117Y118607D01*
X202634Y119381D01*
X202816Y120294D01*
Y139558D01*
X202965Y139647D01*
X203005Y139701D01*
X203061Y139738D01*
X203306Y140105D01*
X203569Y140458D01*
X203585Y140523D01*
X203622Y140578D01*
X203708Y141010D01*
X203816Y141438D01*
X203823Y141562D01*
X203823Y141562D01*
X203827Y141577D01*
X203839Y141612D01*
X203865Y141668D01*
X203909Y141748D01*
X203977Y141849D01*
X204071Y141972D01*
X204191Y142111D01*
X204424Y142267D01*
X205648Y144099D01*
X206078Y146261D01*
X205648Y148422D01*
X204424Y150255D01*
X202591Y151479D01*
X200430Y151909D01*
X198268Y151479D01*
X196436Y150255D01*
X195211Y148422D01*
X194781Y146261D01*
X195211Y144099D01*
X196436Y142267D01*
X196669Y142111D01*
X196789Y141972D01*
X196883Y141850D01*
X196950Y141748D01*
X196995Y141668D01*
X197021Y141612D01*
X197033Y141577D01*
X197037Y141562D01*
X197037Y141562D01*
X197043Y141438D01*
X197151Y141010D01*
X197237Y140578D01*
X197274Y140523D01*
X197291Y140458D01*
X197554Y140105D01*
X197799Y139738D01*
X197854Y139701D01*
X197894Y139647D01*
X198044Y139558D01*
Y121283D01*
X195562Y118801D01*
X194392Y119426D01*
X194534Y120142D01*
X194104Y122304D01*
X192880Y124137D01*
X191047Y125361D01*
X188886Y125791D01*
X188611Y125736D01*
X188427Y125750D01*
X188274Y125770D01*
X188155Y125794D01*
X188067Y125819D01*
X188009Y125840D01*
X187976Y125856D01*
X187962Y125864D01*
X187870Y125948D01*
X187491Y126173D01*
X187125Y126418D01*
X187059Y126431D01*
X187002Y126466D01*
X186566Y126529D01*
X186134Y126615D01*
X186068Y126602D01*
X186002Y126612D01*
X185833Y126569D01*
X178789Y133614D01*
Y254057D01*
X180059Y254583D01*
X231920Y202722D01*
Y199442D01*
X231770Y199352D01*
X231730Y199299D01*
X231674Y199262D01*
X231430Y198895D01*
X231167Y198542D01*
X231150Y198477D01*
X231113Y198421D01*
X231027Y197990D01*
X230919Y197562D01*
X230913Y197438D01*
X230913Y197437D01*
X230909Y197423D01*
X230897Y197388D01*
X230871Y197332D01*
X230826Y197252D01*
X230759Y197150D01*
X230665Y197028D01*
X230544Y196889D01*
X230312Y196733D01*
X229087Y194901D01*
X228657Y192739D01*
X229087Y190577D01*
X230312Y188745D01*
X232144Y187521D01*
X234306Y187090D01*
X236467Y187521D01*
X238300Y188745D01*
X239524Y190577D01*
X239954Y192739D01*
X239524Y194901D01*
X238300Y196733D01*
X238067Y196889D01*
X237946Y197028D01*
X237852Y197150D01*
X237785Y197252D01*
X237740Y197332D01*
X237715Y197388D01*
X237702Y197423D01*
X237698Y197437D01*
X237698Y197438D01*
X237692Y197562D01*
X237584Y197990D01*
X237498Y198421D01*
X237461Y198477D01*
X237445Y198542D01*
X237182Y198895D01*
X236937Y199262D01*
X236881Y199299D01*
X236841Y199352D01*
X236691Y199442D01*
Y202829D01*
X237961Y203355D01*
X246038Y195279D01*
X246109Y194634D01*
X246123Y194027D01*
X245840Y193647D01*
X245547Y193275D01*
X245538Y193243D01*
X245518Y193217D01*
X245402Y192759D01*
X245274Y192302D01*
X245278Y192269D01*
X245270Y192238D01*
X245264Y192124D01*
X245262Y192121D01*
X245247Y192091D01*
X245216Y192039D01*
X245161Y191965D01*
X245080Y191870D01*
X244969Y191758D01*
X244771Y191581D01*
X244762Y191568D01*
X244439Y191352D01*
X243214Y189520D01*
X242785Y187358D01*
X243214Y185197D01*
X244439Y183364D01*
X246271Y182140D01*
X248433Y181710D01*
X250595Y182140D01*
X252427Y183364D01*
X253652Y185197D01*
X254082Y187358D01*
X253652Y189520D01*
X252715Y190922D01*
X252670Y191004D01*
X252622Y191061D01*
X252427Y191352D01*
X252345Y191407D01*
X252245Y191555D01*
X252168Y191685D01*
X252113Y191792D01*
X252078Y191875D01*
X252059Y191933D01*
X252050Y191967D01*
X252049Y191980D01*
X252042Y192106D01*
X251959Y192440D01*
X251918Y192782D01*
X251837Y192926D01*
X251797Y193086D01*
X251591Y193363D01*
X251423Y193663D01*
X251293Y193765D01*
X251215Y193870D01*
X251212Y194156D01*
X251269Y195020D01*
X252401Y195480D01*
X257489Y190391D01*
Y187284D01*
X257340Y187194D01*
X257300Y187141D01*
X257244Y187104D01*
X256999Y186737D01*
X256736Y186384D01*
X256720Y186319D01*
X256683Y186264D01*
X256597Y185832D01*
X256489Y185404D01*
X256483Y185280D01*
X256483Y185280D01*
X256479Y185264D01*
X256466Y185230D01*
X256440Y185174D01*
X256396Y185094D01*
X256328Y184992D01*
X256235Y184870D01*
X256114Y184731D01*
X255881Y184575D01*
X254657Y182743D01*
X254227Y180581D01*
X254657Y178419D01*
X255881Y176587D01*
X257714Y175362D01*
X259875Y174932D01*
X260224Y175002D01*
X260986Y173859D01*
X260604Y171941D01*
X261034Y169779D01*
X262259Y167947D01*
X264091Y166722D01*
X266253Y166292D01*
X268414Y166722D01*
X270247Y167947D01*
X271471Y169779D01*
X271901Y171941D01*
X271471Y174102D01*
X270247Y175935D01*
X269997Y176102D01*
X269966Y176133D01*
X269846Y176269D01*
X269754Y176386D01*
X269689Y176483D01*
X269646Y176558D01*
X269622Y176610D01*
X269611Y176641D01*
X269608Y176651D01*
X269602Y176775D01*
X269490Y177218D01*
X269395Y177664D01*
X269366Y177706D01*
X269354Y177754D01*
X269081Y178121D01*
X268823Y178497D01*
X268780Y178524D01*
X268750Y178565D01*
X268601Y178654D01*
Y190212D01*
X268419Y191125D01*
X267902Y191899D01*
X180876Y278926D01*
X180102Y279443D01*
X179189Y279625D01*
D02*
G37*
G36*
X441030Y167930D02*
X429819D01*
X430083Y165926D01*
X431346Y162876D01*
X433356Y160256D01*
X435976Y158246D01*
X439026Y156983D01*
X441030Y156719D01*
Y167930D01*
D02*
G37*
G36*
X24000Y122857D02*
X22770D01*
Y116270D01*
X31690D01*
X31590Y117034D01*
X30805Y118929D01*
X29556Y120556D01*
X27929Y121805D01*
X26034Y122590D01*
X24000Y122857D01*
D02*
G37*
G36*
X20230D02*
X19000D01*
X16966Y122590D01*
X15071Y121805D01*
X13444Y120556D01*
X12196Y118929D01*
X11410Y117034D01*
X11310Y116270D01*
X20230D01*
Y122857D01*
D02*
G37*
G36*
X31690Y113730D02*
X22770D01*
Y107143D01*
X24000D01*
X26034Y107410D01*
X27929Y108195D01*
X29556Y109444D01*
X30805Y111071D01*
X31590Y112966D01*
X31690Y113730D01*
D02*
G37*
G36*
X20230D02*
X11310D01*
X11410Y112966D01*
X12196Y111071D01*
X13444Y109444D01*
X15071Y108195D01*
X16966Y107410D01*
X19000Y107143D01*
X20230D01*
Y113730D01*
D02*
G37*
G36*
X49770Y113690D02*
Y106270D01*
X56322D01*
X56090Y108034D01*
X55304Y109929D01*
X54056Y111556D01*
X52429Y112804D01*
X50534Y113589D01*
X49770Y113690D01*
D02*
G37*
G36*
X47230D02*
X46466Y113589D01*
X44571Y112804D01*
X42944Y111556D01*
X41695Y109929D01*
X40911Y108034D01*
X40678Y106270D01*
X47230D01*
Y113690D01*
D02*
G37*
G36*
X56322Y103730D02*
X49770D01*
Y96310D01*
X50534Y96411D01*
X52429Y97195D01*
X54056Y98444D01*
X55304Y100071D01*
X56090Y101966D01*
X56322Y103730D01*
D02*
G37*
G36*
X47230D02*
X40678D01*
X40911Y101966D01*
X41695Y100071D01*
X42944Y98444D01*
X44571Y97195D01*
X46466Y96411D01*
X47230Y96310D01*
Y103730D01*
D02*
G37*
G36*
X358455Y104149D02*
X356293Y103719D01*
X354461Y102494D01*
X353237Y100662D01*
X352807Y98500D01*
X353237Y96339D01*
X354461Y94506D01*
X356293Y93281D01*
X358455Y92851D01*
X360617Y93281D01*
X362449Y94506D01*
X363674Y96339D01*
X364104Y98500D01*
X363674Y100662D01*
X362449Y102494D01*
X360617Y103719D01*
X358455Y104149D01*
D02*
G37*
G36*
X440045Y104149D02*
X437883Y103719D01*
X436051Y102494D01*
X434826Y100662D01*
X434396Y98500D01*
X434826Y96338D01*
X436051Y94506D01*
X437883Y93281D01*
X440045Y92851D01*
X442206Y93281D01*
X444039Y94506D01*
X445263Y96338D01*
X445693Y98500D01*
X445263Y100662D01*
X444039Y102494D01*
X442206Y103719D01*
X440045Y104149D01*
D02*
G37*
G36*
X212250Y92111D02*
X210088Y91681D01*
X208256Y90456D01*
X207031Y88624D01*
X206602Y86462D01*
X207031Y84300D01*
X208256Y82468D01*
X210088Y81244D01*
X212250Y80814D01*
X214412Y81244D01*
X216244Y82468D01*
X217469Y84300D01*
X217899Y86462D01*
X217469Y88624D01*
X216244Y90456D01*
X214412Y91681D01*
X212250Y92111D01*
D02*
G37*
G36*
X85500Y90288D02*
X83338Y89858D01*
X81506Y88633D01*
X80281Y86800D01*
X79851Y84639D01*
X80281Y82477D01*
X81506Y80645D01*
X83338Y79420D01*
X85500Y78990D01*
X87662Y79420D01*
X89494Y80645D01*
X90719Y82477D01*
X91149Y84639D01*
X90719Y86800D01*
X89494Y88633D01*
X87662Y89858D01*
X85500Y90288D01*
D02*
G37*
G36*
X228500Y89299D02*
X226338Y88869D01*
X224506Y87644D01*
X223281Y85812D01*
X222852Y83650D01*
X223281Y81489D01*
X224506Y79656D01*
X226338Y78432D01*
X228500Y78002D01*
X230662Y78432D01*
X232494Y79656D01*
X233719Y81489D01*
X234149Y83650D01*
X233719Y85812D01*
X232494Y87644D01*
X230662Y88869D01*
X228500Y89299D01*
D02*
G37*
G36*
X49770Y63690D02*
Y56270D01*
X56322D01*
X56090Y58034D01*
X55304Y59929D01*
X54056Y61556D01*
X52429Y62804D01*
X50534Y63590D01*
X49770Y63690D01*
D02*
G37*
G36*
X47230D02*
X46466Y63590D01*
X44571Y62804D01*
X42944Y61556D01*
X41695Y59929D01*
X40911Y58034D01*
X40678Y56270D01*
X47230D01*
Y63690D01*
D02*
G37*
G36*
X60627Y238681D02*
X58465Y238251D01*
X56633Y237027D01*
X55408Y235194D01*
X54978Y233033D01*
X55408Y230871D01*
X56633Y229039D01*
X58465Y227814D01*
X60627Y227384D01*
X62788Y227814D01*
X64621Y229039D01*
X64777Y229272D01*
X64915Y229392D01*
X65038Y229486D01*
X65140Y229553D01*
X65219Y229598D01*
X65276Y229624D01*
X65310Y229636D01*
X65325Y229640D01*
X65325Y229640D01*
X65450Y229646D01*
X65877Y229754D01*
X66309Y229840D01*
X66365Y229877D01*
X66430Y229894D01*
X66783Y230157D01*
X67149Y230402D01*
X67187Y230457D01*
X67240Y230497D01*
X67330Y230647D01*
X76403D01*
X95552Y211498D01*
Y84581D01*
X95734Y83668D01*
X96251Y82894D01*
X120001Y59144D01*
X120775Y58627D01*
X121688Y58445D01*
X136522D01*
X137597Y56837D01*
X139429Y55612D01*
X141591Y55182D01*
X143752Y55612D01*
X145585Y56837D01*
X146809Y58669D01*
X147239Y60831D01*
X146809Y62993D01*
X145585Y64825D01*
X143752Y66049D01*
X141591Y66479D01*
X139429Y66049D01*
X137597Y64825D01*
X136522Y63217D01*
X122677D01*
X100324Y85569D01*
Y212486D01*
X100142Y213399D01*
X99625Y214173D01*
X79078Y234720D01*
X78304Y235237D01*
X77391Y235419D01*
X67330D01*
X67240Y235568D01*
X67187Y235608D01*
X67149Y235664D01*
X66783Y235909D01*
X66430Y236172D01*
X66365Y236188D01*
X66309Y236225D01*
X65877Y236311D01*
X65450Y236419D01*
X65325Y236426D01*
X65325Y236426D01*
X65310Y236429D01*
X65276Y236442D01*
X65219Y236468D01*
X65139Y236513D01*
X65038Y236580D01*
X64915Y236674D01*
X64777Y236794D01*
X64621Y237027D01*
X62788Y238251D01*
X60627Y238681D01*
D02*
G37*
G36*
X187969Y183654D02*
X185807Y183224D01*
X183974Y182000D01*
X182750Y180167D01*
X182320Y178006D01*
X182750Y175844D01*
X183974Y174012D01*
X185807Y172787D01*
X187969Y172357D01*
X188243Y172412D01*
X188427Y172399D01*
X188580Y172378D01*
X188699Y172354D01*
X188787Y172330D01*
X188846Y172308D01*
X188878Y172292D01*
X188892Y172284D01*
X188985Y172201D01*
X189363Y171975D01*
X189729Y171730D01*
X189795Y171717D01*
X189852Y171683D01*
X190288Y171619D01*
X190720Y171533D01*
X190786Y171546D01*
X190852Y171536D01*
X191021Y171579D01*
X239473Y123128D01*
Y64543D01*
X239323Y64454D01*
X239283Y64400D01*
X239227Y64363D01*
X238983Y63997D01*
X238720Y63643D01*
X238703Y63579D01*
X238666Y63523D01*
X238580Y63091D01*
X238472Y62664D01*
X238466Y62539D01*
X238466Y62539D01*
X238462Y62524D01*
X238450Y62489D01*
X238424Y62433D01*
X238379Y62353D01*
X238312Y62252D01*
X238218Y62129D01*
X238097Y61990D01*
X237864Y61835D01*
X236640Y60002D01*
X236210Y57840D01*
X236640Y55679D01*
X237864Y53846D01*
X239697Y52622D01*
X241859Y52192D01*
X244020Y52622D01*
X245853Y53846D01*
X247077Y55679D01*
X247507Y57840D01*
X247077Y60002D01*
X245853Y61835D01*
X245620Y61990D01*
X245499Y62129D01*
X245406Y62252D01*
X245338Y62353D01*
X245293Y62433D01*
X245268Y62489D01*
X245255Y62524D01*
X245251Y62539D01*
X245251Y62539D01*
X245245Y62664D01*
X245137Y63091D01*
X245051Y63523D01*
X245014Y63579D01*
X244998Y63643D01*
X244735Y63997D01*
X244490Y64363D01*
X244434Y64400D01*
X244394Y64454D01*
X244244Y64543D01*
Y124116D01*
X244063Y125029D01*
X243546Y125803D01*
X194395Y174953D01*
X194438Y175122D01*
X194428Y175189D01*
X194441Y175254D01*
X194355Y175686D01*
X194292Y176122D01*
X194257Y176180D01*
X194244Y176245D01*
X193999Y176612D01*
X193774Y176990D01*
X193690Y177082D01*
X193690Y177082D01*
X193682Y177096D01*
X193666Y177129D01*
X193645Y177187D01*
X193620Y177275D01*
X193596Y177394D01*
X193576Y177547D01*
X193563Y177731D01*
X193617Y178006D01*
X193187Y180167D01*
X191963Y182000D01*
X190130Y183224D01*
X187969Y183654D01*
D02*
G37*
G36*
X56322Y53730D02*
X49770D01*
Y46310D01*
X50534Y46410D01*
X52429Y47195D01*
X54056Y48444D01*
X55304Y50071D01*
X56090Y51966D01*
X56322Y53730D01*
D02*
G37*
G36*
X47230D02*
X40678D01*
X40911Y51966D01*
X41695Y50071D01*
X42944Y48444D01*
X44571Y47195D01*
X46466Y46410D01*
X47230Y46310D01*
Y53730D01*
D02*
G37*
G36*
X24000Y52857D02*
X22770D01*
Y46270D01*
X31690D01*
X31590Y47034D01*
X30805Y48929D01*
X29556Y50556D01*
X27929Y51804D01*
X26034Y52590D01*
X24000Y52857D01*
D02*
G37*
G36*
X20230D02*
X19000D01*
X16966Y52590D01*
X15071Y51804D01*
X13444Y50556D01*
X12196Y48929D01*
X11410Y47034D01*
X11310Y46270D01*
X20230D01*
Y52857D01*
D02*
G37*
G36*
X145400Y40305D02*
X143432Y40046D01*
X141597Y39286D01*
X140022Y38078D01*
X139685Y37638D01*
X138415D01*
X138078Y38078D01*
X136503Y39286D01*
X134668Y40046D01*
X132700Y40305D01*
X130732Y40046D01*
X128897Y39286D01*
X127322Y38078D01*
X126985Y37638D01*
X125715D01*
X125378Y38078D01*
X123802Y39286D01*
X121968Y40046D01*
X120000Y40305D01*
X118032Y40046D01*
X116198Y39286D01*
X114622Y38078D01*
X114285Y37638D01*
X113015D01*
X112678Y38078D01*
X111103Y39286D01*
X109268Y40046D01*
X107300Y40305D01*
X105332Y40046D01*
X103497Y39286D01*
X101922Y38078D01*
X101585Y37638D01*
X100315D01*
X99978Y38078D01*
X98403Y39286D01*
X96568Y40046D01*
X94600Y40305D01*
X92632Y40046D01*
X90798Y39286D01*
X89222Y38078D01*
X88014Y36502D01*
X87254Y34668D01*
X86995Y32700D01*
X87254Y30732D01*
X88014Y28898D01*
X88181Y28679D01*
X87620Y27540D01*
X87060D01*
Y12460D01*
X102140D01*
Y13020D01*
X103279Y13582D01*
X103497Y13414D01*
X105332Y12654D01*
X106030Y12562D01*
Y20000D01*
X108570D01*
Y12562D01*
X109268Y12654D01*
X111103Y13414D01*
X112678Y14622D01*
X113015Y15062D01*
X114285D01*
X114622Y14622D01*
X116198Y13414D01*
X118032Y12654D01*
X118730Y12562D01*
Y20000D01*
X121270D01*
Y12562D01*
X121968Y12654D01*
X123802Y13414D01*
X125378Y14622D01*
X125715Y15062D01*
X126985D01*
X127322Y14622D01*
X128897Y13414D01*
X130732Y12654D01*
X132700Y12395D01*
X134668Y12654D01*
X136503Y13414D01*
X138078Y14622D01*
X138415Y15062D01*
X139685D01*
X140022Y14622D01*
X141597Y13414D01*
X143432Y12654D01*
X144130Y12562D01*
Y20000D01*
X145400D01*
Y21270D01*
X152838D01*
X152746Y21968D01*
X151986Y23802D01*
X150778Y25378D01*
X150338Y25715D01*
Y26985D01*
X150778Y27322D01*
X151986Y28898D01*
X152746Y30732D01*
X153005Y32700D01*
X152746Y34668D01*
X151986Y36502D01*
X150778Y38078D01*
X149202Y39286D01*
X147368Y40046D01*
X145400Y40305D01*
D02*
G37*
G36*
X31690Y43730D02*
X22770D01*
Y37143D01*
X24000D01*
X26034Y37411D01*
X27929Y38195D01*
X29556Y39444D01*
X30805Y41071D01*
X31590Y42966D01*
X31690Y43730D01*
D02*
G37*
G36*
X20230D02*
X11310D01*
X11410Y42966D01*
X12196Y41071D01*
X13444Y39444D01*
X15071Y38195D01*
X16966Y37411D01*
X19000Y37143D01*
X20230D01*
Y43730D01*
D02*
G37*
G36*
X152838Y18730D02*
X146670D01*
Y12562D01*
X147368Y12654D01*
X149202Y13414D01*
X150778Y14622D01*
X151986Y16198D01*
X152746Y18032D01*
X152838Y18730D01*
D02*
G37*
G36*
X195044Y19236D02*
X192882Y18806D01*
X191050Y17581D01*
X189825Y15749D01*
X189395Y13587D01*
X189825Y11426D01*
X191050Y9593D01*
X192882Y8369D01*
X195044Y7939D01*
X197205Y8369D01*
X199038Y9593D01*
X200262Y11426D01*
X200692Y13587D01*
X200262Y15749D01*
X199038Y17581D01*
X197205Y18806D01*
X195044Y19236D01*
D02*
G37*
%LPD*%
G36*
X415775Y280644D02*
X415520Y280891D01*
X415265Y281112D01*
X415010Y281307D01*
X414756Y281476D01*
X414501Y281619D01*
X414246Y281736D01*
X413991Y281827D01*
X413736Y281892D01*
X413481Y281931D01*
X413226Y281944D01*
Y283544D01*
X413481Y283557D01*
X413736Y283596D01*
X413991Y283661D01*
X414246Y283752D01*
X414501Y283869D01*
X414756Y284012D01*
X415010Y284181D01*
X415265Y284376D01*
X415520Y284597D01*
X415775Y284844D01*
Y280644D01*
D02*
G37*
G36*
X389751Y280539D02*
X389423Y280201D01*
X388910Y279599D01*
X388723Y279335D01*
X388583Y279096D01*
X388491Y278882D01*
X388445Y278693D01*
X388446Y278529D01*
X388494Y278390D01*
X388589Y278276D01*
X386187Y280339D01*
X386317Y280259D01*
X386468Y280223D01*
X386640Y280230D01*
X386834Y280281D01*
X387049Y280375D01*
X387286Y280513D01*
X387545Y280695D01*
X387825Y280920D01*
X388450Y281501D01*
X389751Y280539D01*
D02*
G37*
G36*
X400441Y278387D02*
X401425Y277523D01*
X401889Y277172D01*
X402335Y276875D01*
X402762Y276632D01*
X403171Y276443D01*
X403561Y276308D01*
X403933Y276227D01*
X404286Y276200D01*
Y274600D01*
X403933Y274573D01*
X403561Y274492D01*
X403171Y274357D01*
X402762Y274168D01*
X402335Y273925D01*
X401889Y273628D01*
X401425Y273277D01*
X400441Y272413D01*
X399921Y271900D01*
Y278900D01*
X400441Y278387D01*
D02*
G37*
G36*
X457638Y282479D02*
X458221Y282154D01*
X458944Y281864D01*
X459805Y281609D01*
X460804Y281388D01*
X461942Y281201D01*
X464635Y280931D01*
X467882Y280798D01*
X457707Y271182D01*
X457749Y272826D01*
X457595Y276975D01*
X457451Y278096D01*
X457260Y279086D01*
X457022Y279946D01*
X456738Y280674D01*
X456407Y281271D01*
X456029Y281738D01*
X457193Y282837D01*
X457638Y282479D01*
D02*
G37*
G36*
X256264Y237751D02*
X256518Y237530D01*
X256773Y237335D01*
X257028Y237166D01*
X257283Y237023D01*
X257538Y236906D01*
X257793Y236815D01*
X258048Y236750D01*
X258303Y236711D01*
X258558Y236698D01*
Y235098D01*
X258303Y235085D01*
X258048Y235046D01*
X257793Y234981D01*
X257538Y234890D01*
X257283Y234773D01*
X257028Y234630D01*
X256773Y234461D01*
X256518Y234266D01*
X256264Y234045D01*
X256009Y233798D01*
Y237998D01*
X256264Y237751D01*
D02*
G37*
G36*
X302438Y226212D02*
X302646Y226059D01*
X302872Y225925D01*
X303116Y225809D01*
X303379Y225711D01*
X303661Y225632D01*
X303960Y225572D01*
X304279Y225529D01*
X304615Y225505D01*
X304970Y225500D01*
X302000Y222530D01*
X301995Y222885D01*
X301971Y223221D01*
X301928Y223540D01*
X301868Y223839D01*
X301789Y224121D01*
X301691Y224384D01*
X301575Y224628D01*
X301441Y224854D01*
X301288Y225062D01*
X301117Y225252D01*
X302248Y226383D01*
X302438Y226212D01*
D02*
G37*
G36*
X242371Y230813D02*
X242395Y230477D01*
X242437Y230159D01*
X242498Y229859D01*
X242577Y229578D01*
X242675Y229315D01*
X242791Y229070D01*
X242925Y228844D01*
X243078Y228636D01*
X243249Y228447D01*
X242118Y227315D01*
X241928Y227486D01*
X241720Y227639D01*
X241494Y227773D01*
X241249Y227889D01*
X240986Y227987D01*
X240705Y228066D01*
X240405Y228127D01*
X240087Y228169D01*
X239751Y228193D01*
X239396Y228198D01*
X242366Y231168D01*
X242371Y230813D01*
D02*
G37*
G36*
X274265Y209534D02*
X274010Y209781D01*
X273755Y210002D01*
X273500Y210197D01*
X273246Y210366D01*
X272991Y210509D01*
X272736Y210626D01*
X272481Y210717D01*
X272226Y210782D01*
X271971Y210821D01*
X271716Y210834D01*
Y212434D01*
X271971Y212447D01*
X272226Y212486D01*
X272481Y212551D01*
X272736Y212642D01*
X272991Y212759D01*
X273246Y212902D01*
X273500Y213071D01*
X273755Y213266D01*
X274010Y213487D01*
X274265Y213734D01*
Y209534D01*
D02*
G37*
G36*
X142217Y184984D02*
X141862Y184978D01*
X141525Y184954D01*
X141207Y184912D01*
X140908Y184851D01*
X140626Y184772D01*
X140363Y184674D01*
X140119Y184558D01*
X139893Y184424D01*
X139685Y184272D01*
X139495Y184100D01*
X138364Y185232D01*
X138535Y185421D01*
X138688Y185629D01*
X138822Y185855D01*
X138938Y186100D01*
X139035Y186363D01*
X139115Y186644D01*
X139175Y186944D01*
X139218Y187262D01*
X139242Y187598D01*
X139247Y187953D01*
X142217Y184984D01*
D02*
G37*
G36*
X191889Y31212D02*
X192097Y31059D01*
X192323Y30925D01*
X192568Y30809D01*
X192831Y30712D01*
X193112Y30632D01*
X193412Y30572D01*
X193730Y30529D01*
X194067Y30505D01*
X194422Y30500D01*
X191452Y27530D01*
X191446Y27885D01*
X191422Y28221D01*
X191380Y28539D01*
X191319Y28839D01*
X191240Y29121D01*
X191142Y29383D01*
X191026Y29628D01*
X190892Y29854D01*
X190740Y30062D01*
X190569Y30252D01*
X191700Y31383D01*
X191889Y31212D01*
D02*
G37*
G36*
X169165Y255954D02*
X169189Y255618D01*
X169232Y255300D01*
X169292Y255000D01*
X169371Y254719D01*
X169469Y254456D01*
X169585Y254211D01*
X169719Y253985D01*
X169872Y253777D01*
X170043Y253588D01*
X168912Y252456D01*
X168722Y252627D01*
X168514Y252780D01*
X168288Y252914D01*
X168043Y253030D01*
X167780Y253128D01*
X167499Y253207D01*
X167199Y253268D01*
X166881Y253310D01*
X166545Y253334D01*
X166190Y253340D01*
X169160Y256309D01*
X169165Y255954D01*
D02*
G37*
G36*
X131524Y254518D02*
X131780Y254298D01*
X132036Y254104D01*
X132292Y253936D01*
X132548Y253793D01*
X132804Y253677D01*
X133059Y253586D01*
X133314Y253521D01*
X133569Y253483D01*
X133823Y253470D01*
X133834Y251870D01*
X133578Y251857D01*
X133323Y251817D01*
X133068Y251752D01*
X132814Y251661D01*
X132560Y251543D01*
X132306Y251400D01*
X132052Y251230D01*
X131798Y251034D01*
X131545Y250812D01*
X131292Y250564D01*
X131267Y254764D01*
X131524Y254518D01*
D02*
G37*
G36*
X118389Y229582D02*
X118432Y229325D01*
X118503Y229076D01*
X118604Y228836D01*
X118732Y228605D01*
X118890Y228383D01*
X119076Y228169D01*
X119290Y227964D01*
X119534Y227768D01*
X119805Y227580D01*
X115694Y226722D01*
X115899Y227041D01*
X116245Y227651D01*
X116386Y227942D01*
X116602Y228498D01*
X116677Y228762D01*
X116731Y229017D01*
X116764Y229263D01*
X116775Y229501D01*
X118375Y229848D01*
X118389Y229582D01*
D02*
G37*
G36*
X113597Y220470D02*
X113805Y220317D01*
X114031Y220183D01*
X114276Y220067D01*
X114539Y219970D01*
X114820Y219891D01*
X115120Y219830D01*
X115438Y219788D01*
X115774Y219764D01*
X116129Y219758D01*
X113160Y216788D01*
X113154Y217143D01*
X113130Y217479D01*
X113088Y217798D01*
X113027Y218097D01*
X112948Y218379D01*
X112850Y218642D01*
X112734Y218886D01*
X112600Y219112D01*
X112447Y219320D01*
X112276Y219510D01*
X113408Y220641D01*
X113597Y220470D01*
D02*
G37*
G36*
X235119Y197175D02*
X235158Y196921D01*
X235223Y196666D01*
X235314Y196411D01*
X235431Y196156D01*
X235574Y195901D01*
X235743Y195646D01*
X235938Y195391D01*
X236159Y195136D01*
X236406Y194881D01*
X232206D01*
X232453Y195136D01*
X232674Y195391D01*
X232869Y195646D01*
X233038Y195901D01*
X233181Y196156D01*
X233298Y196411D01*
X233389Y196666D01*
X233454Y196921D01*
X233493Y197175D01*
X233506Y197430D01*
X235106D01*
X235119Y197175D01*
D02*
G37*
G36*
X249456Y191979D02*
X249468Y191729D01*
X249505Y191476D01*
X249566Y191220D01*
X249653Y190961D01*
X249763Y190699D01*
X249899Y190433D01*
X250059Y190164D01*
X250243Y189893D01*
X250452Y189617D01*
X250686Y189339D01*
X246498Y189651D01*
X246756Y189881D01*
X246987Y190116D01*
X247190Y190353D01*
X247367Y190593D01*
X247516Y190837D01*
X247638Y191083D01*
X247734Y191333D01*
X247801Y191586D01*
X247842Y191843D01*
X247856Y192102D01*
X249456Y191979D01*
D02*
G37*
G36*
X260688Y185018D02*
X260727Y184762D01*
X260792Y184508D01*
X260883Y184253D01*
X261000Y183998D01*
X261143Y183743D01*
X261312Y183488D01*
X261507Y183233D01*
X261728Y182978D01*
X261975Y182724D01*
X257775D01*
X258022Y182978D01*
X258243Y183233D01*
X258438Y183488D01*
X258607Y183743D01*
X258750Y183998D01*
X258867Y184253D01*
X258958Y184508D01*
X259023Y184762D01*
X259062Y185018D01*
X259075Y185272D01*
X260675D01*
X260688Y185018D01*
D02*
G37*
G36*
X267028Y176386D02*
X267068Y176131D01*
X267133Y175877D01*
X267225Y175623D01*
X267343Y175369D01*
X267487Y175116D01*
X267657Y174863D01*
X267854Y174611D01*
X268077Y174360D01*
X268326Y174109D01*
X264126Y174057D01*
X264371Y174316D01*
X264590Y174574D01*
X264784Y174832D01*
X264951Y175089D01*
X265093Y175346D01*
X265209Y175602D01*
X265299Y175858D01*
X265364Y176113D01*
X265402Y176367D01*
X265415Y176621D01*
X267015Y176642D01*
X267028Y176386D01*
D02*
G37*
G36*
X172906Y156483D02*
X172797Y156370D01*
X172623Y156167D01*
X172558Y156077D01*
X172507Y155994D01*
X172472Y155919D01*
X172451Y155851D01*
X172445Y155790D01*
X172453Y155738D01*
X172477Y155692D01*
X170739Y156834D01*
X170787Y156833D01*
X170847Y156850D01*
X170919Y156884D01*
X171004Y156936D01*
X171101Y157005D01*
X171333Y157196D01*
X171615Y157457D01*
X171774Y157614D01*
X172906Y156483D01*
D02*
G37*
G36*
X202283Y143863D02*
X202062Y143609D01*
X201867Y143354D01*
X201698Y143099D01*
X201555Y142844D01*
X201438Y142589D01*
X201347Y142334D01*
X201282Y142079D01*
X201243Y141824D01*
X201230Y141569D01*
X199630D01*
X199617Y141824D01*
X199578Y142079D01*
X199513Y142334D01*
X199422Y142589D01*
X199305Y142844D01*
X199162Y143099D01*
X198993Y143354D01*
X198798Y143609D01*
X198577Y143863D01*
X198330Y144118D01*
X202530D01*
X202283Y143863D01*
D02*
G37*
G36*
X186323Y123854D02*
X186531Y123702D01*
X186758Y123567D01*
X187002Y123451D01*
X187265Y123354D01*
X187546Y123275D01*
X187846Y123214D01*
X188164Y123172D01*
X188501Y123148D01*
X188856Y123142D01*
X185886Y120173D01*
X185880Y120527D01*
X185856Y120864D01*
X185814Y121182D01*
X185753Y121482D01*
X185674Y121763D01*
X185576Y122026D01*
X185461Y122271D01*
X185326Y122497D01*
X185174Y122705D01*
X185003Y122894D01*
X186134Y124025D01*
X186323Y123854D01*
D02*
G37*
G36*
X150288Y97305D02*
X150117Y97115D01*
X149964Y96908D01*
X149830Y96681D01*
X149714Y96437D01*
X149617Y96174D01*
X149537Y95892D01*
X149477Y95593D01*
X149434Y95275D01*
X149410Y94938D01*
X149405Y94583D01*
X146435Y97553D01*
X146790Y97559D01*
X147127Y97583D01*
X147445Y97625D01*
X147744Y97686D01*
X148026Y97765D01*
X148289Y97862D01*
X148533Y97978D01*
X148759Y98112D01*
X148967Y98265D01*
X149157Y98436D01*
X150288Y97305D01*
D02*
G37*
G36*
X63024Y234886D02*
X63279Y234665D01*
X63534Y234470D01*
X63789Y234301D01*
X64043Y234158D01*
X64298Y234041D01*
X64553Y233950D01*
X64808Y233885D01*
X65063Y233846D01*
X65318Y233833D01*
Y232233D01*
X65063Y232220D01*
X64808Y232181D01*
X64553Y232116D01*
X64298Y232025D01*
X64043Y231908D01*
X63789Y231765D01*
X63534Y231596D01*
X63279Y231401D01*
X63024Y231180D01*
X62769Y230933D01*
Y235133D01*
X63024Y234886D01*
D02*
G37*
G36*
X190974Y177621D02*
X190998Y177284D01*
X191040Y176966D01*
X191101Y176667D01*
X191180Y176385D01*
X191278Y176122D01*
X191394Y175878D01*
X191528Y175651D01*
X191681Y175444D01*
X191852Y175254D01*
X190720Y174123D01*
X190531Y174294D01*
X190323Y174447D01*
X190097Y174581D01*
X189852Y174697D01*
X189589Y174794D01*
X189308Y174873D01*
X189008Y174934D01*
X188690Y174976D01*
X188354Y175000D01*
X187999Y175006D01*
X190968Y177976D01*
X190974Y177621D01*
D02*
G37*
G36*
X242672Y62277D02*
X242710Y62022D01*
X242775Y61767D01*
X242866Y61512D01*
X242983Y61257D01*
X243127Y61002D01*
X243296Y60747D01*
X243491Y60493D01*
X243712Y60238D01*
X243958Y59983D01*
X239759D01*
X240005Y60238D01*
X240226Y60493D01*
X240422Y60747D01*
X240591Y61002D01*
X240734Y61257D01*
X240851Y61512D01*
X240942Y61767D01*
X241007Y62022D01*
X241045Y62277D01*
X241059Y62532D01*
X242659D01*
X242672Y62277D01*
D02*
G37*
D14*
X145400Y20000D02*
D03*
Y32700D02*
D03*
X132700Y20000D02*
D03*
Y32700D02*
D03*
X120000Y20000D02*
D03*
Y32700D02*
D03*
X107300Y20000D02*
D03*
Y32700D02*
D03*
X94600D02*
D03*
X396350Y275400D02*
D03*
Y262700D02*
D03*
X383650D02*
D03*
X396350Y250000D02*
D03*
X383650D02*
D03*
X396350Y237300D02*
D03*
X383650D02*
D03*
X396350Y224600D02*
D03*
X383650D02*
D03*
D60*
X77391Y233033D02*
X97938Y212486D01*
X121688Y60831D02*
X141591D01*
X97938Y84581D02*
X121688Y60831D01*
X97938Y84581D02*
Y212486D01*
X135816Y86135D02*
Y181553D01*
Y86135D02*
X194452Y27500D01*
X392581Y284500D02*
X403776D01*
X405532Y282744D01*
X417917D01*
X396350Y275400D02*
X421021D01*
X431488Y285866D02*
X453032D01*
X421021Y275400D02*
X431488Y285866D01*
X383650Y275400D02*
X387850Y279600D01*
Y279769D01*
X392581Y284500D01*
X453032Y285866D02*
X467700Y271198D01*
X291602Y235898D02*
X297627Y229873D01*
X253866Y235898D02*
X291602D01*
X239366Y231198D02*
X258930Y211634D01*
X297627Y229873D02*
X297627D01*
X305000Y222500D01*
X258930Y211634D02*
X276407D01*
X179189Y277239D02*
X266215Y190212D01*
Y171978D02*
Y190212D01*
X126529Y277239D02*
X179189D01*
X60627Y233033D02*
X77391D01*
X176403Y132625D02*
X188886Y120142D01*
X176403Y132625D02*
Y255664D01*
X170063Y154771D02*
X172340Y157048D01*
X170063Y153911D02*
Y154771D01*
X169388Y262679D02*
X176403Y255664D01*
X135816Y181553D02*
X142247Y187983D01*
X190443Y110307D02*
X200430Y120294D01*
Y146261D01*
X162159Y110307D02*
X190443D01*
X146405Y94553D02*
X162159Y110307D01*
X248656Y187581D02*
Y196035D01*
X248433Y187358D02*
X248656Y187581D01*
X174793Y269897D02*
X248656Y196035D01*
X154775Y269897D02*
X174793D01*
X154893Y265854D02*
X172162D01*
X234306Y203710D01*
Y192739D02*
Y203710D01*
X144788Y259910D02*
X154775Y269897D01*
X177798Y273457D02*
X259875Y191380D01*
X123722Y269704D02*
X127474Y273457D01*
X177798D01*
X110905Y261615D02*
X126529Y277239D01*
X161908Y262679D02*
X169388D01*
X158743Y259514D02*
X161908Y262679D01*
X157553Y259514D02*
X158743D01*
X150982Y261944D02*
X154893Y265854D01*
X117575Y263657D02*
X123622Y269704D01*
X123722D01*
X166160Y256339D02*
X172340Y250159D01*
Y157048D02*
Y250159D01*
X129156Y252670D02*
X146138D01*
X150982Y257514D01*
X129137Y252651D02*
X129156Y252670D01*
X144412Y259910D02*
X144788D01*
X110905Y222013D02*
Y261615D01*
X117575Y225667D02*
Y263657D01*
X266215Y171978D02*
X266253Y171941D01*
X259875Y180581D02*
Y191380D01*
X110905Y222013D02*
X116159Y216758D01*
X117575Y225667D02*
X118187Y225054D01*
X150982Y257514D02*
Y261944D01*
X187969Y178006D02*
X241859Y124116D01*
Y57840D02*
Y124116D01*
X467700Y270800D02*
Y271198D01*
D61*
Y194600D02*
D03*
X442300D02*
D03*
X467700Y245400D02*
D03*
X442300D02*
D03*
X467700Y270800D02*
D03*
X442300Y220000D02*
D03*
X467700D02*
D03*
X442300Y169200D02*
D03*
X467700D02*
D03*
D62*
X442300Y270800D02*
D03*
D63*
X94600Y20000D02*
D03*
D64*
X48500Y105000D02*
D03*
Y55000D02*
D03*
Y195000D02*
D03*
Y245000D02*
D03*
D65*
X21500Y115000D02*
D03*
Y45000D02*
D03*
Y185000D02*
D03*
Y255000D02*
D03*
D66*
X383650Y275400D02*
D03*
D67*
X141591Y60831D02*
D03*
X190640Y41384D02*
D03*
X85500Y84639D02*
D03*
X239777Y244937D02*
D03*
X104568Y100141D02*
D03*
X176338Y95094D02*
D03*
X351349Y288500D02*
D03*
X417917Y282744D02*
D03*
X253866Y235898D02*
D03*
X239366Y231198D02*
D03*
X276407Y211634D02*
D03*
X305000Y222500D02*
D03*
X127500Y86028D02*
D03*
X117959Y156550D02*
D03*
X60627Y233033D02*
D03*
X74367Y191571D02*
D03*
X81947Y206507D02*
D03*
X65886Y206656D02*
D03*
X361290Y256392D02*
D03*
X346685Y207819D02*
D03*
X128361Y162591D02*
D03*
X188361Y163287D02*
D03*
X170063Y153911D02*
D03*
X200430Y146261D02*
D03*
X146405Y94553D02*
D03*
X155000Y222000D02*
D03*
X166000Y211000D02*
D03*
X155000D02*
D03*
X144000D02*
D03*
X166000Y222000D02*
D03*
X144000D02*
D03*
X166000Y233000D02*
D03*
X155000D02*
D03*
X144000D02*
D03*
X154500Y119500D02*
D03*
Y130500D02*
D03*
X165500Y119500D02*
D03*
Y130500D02*
D03*
X200553Y109209D02*
D03*
X358391Y112163D02*
D03*
X440358Y112203D02*
D03*
X480184Y19195D02*
D03*
X398374Y19454D02*
D03*
X248433Y187358D02*
D03*
X157114Y284001D02*
D03*
X157553Y259514D02*
D03*
X166160Y256339D02*
D03*
X129137Y252651D02*
D03*
X144412Y259910D02*
D03*
X114219Y276455D02*
D03*
X123915Y261031D02*
D03*
X266253Y171941D02*
D03*
X118187Y225054D02*
D03*
X158500Y154205D02*
D03*
X188886Y120142D02*
D03*
X259875Y180581D02*
D03*
X116159Y216758D02*
D03*
X234306Y192739D02*
D03*
X228500Y83650D02*
D03*
X187969Y178006D02*
D03*
X241859Y57840D02*
D03*
X142247Y187983D02*
D03*
X194452Y27500D02*
D03*
X214236Y174546D02*
D03*
X294404Y258500D02*
D03*
X276699Y28850D02*
D03*
X316661Y28436D02*
D03*
X195044Y13587D02*
D03*
X187750Y87797D02*
D03*
X212250Y86462D02*
D03*
X440045Y98500D02*
D03*
X358455Y98500D02*
D03*
X334396Y220500D02*
D03*
X68000Y259274D02*
D03*
X97354Y276000D02*
D03*
X199334Y285426D02*
D03*
X334745Y254500D02*
D03*
X244603Y270426D02*
D03*
M02*
