G04*
G04 #@! TF.GenerationSoftware,Altium Limited,Altium Designer,21.6.1 (37)*
G04*
G04 Layer_Color=8388736*
%FSLAX44Y44*%
%MOMM*%
G71*
G04*
G04 #@! TF.SameCoordinates,EB5C24EC-25F4-4F86-8BBE-D8D07956753C*
G04*
G04*
G04 #@! TF.FilePolarity,Negative*
G04*
G01*
G75*
%ADD34C,1.1000*%
G04:AMPARAMS|DCode=35|XSize=0.7mm|YSize=1mm|CornerRadius=0.125mm|HoleSize=0mm|Usage=FLASHONLY|Rotation=90.000|XOffset=0mm|YOffset=0mm|HoleType=Round|Shape=RoundedRectangle|*
%AMROUNDEDRECTD35*
21,1,0.7000,0.7500,0,0,90.0*
21,1,0.4500,1.0000,0,0,90.0*
1,1,0.2500,0.3750,0.2250*
1,1,0.2500,0.3750,-0.2250*
1,1,0.2500,-0.3750,-0.2250*
1,1,0.2500,-0.3750,0.2250*
%
%ADD35ROUNDEDRECTD35*%
G04:AMPARAMS|DCode=36|XSize=0.9mm|YSize=0.9mm|CornerRadius=0.15mm|HoleSize=0mm|Usage=FLASHONLY|Rotation=90.000|XOffset=0mm|YOffset=0mm|HoleType=Round|Shape=RoundedRectangle|*
%AMROUNDEDRECTD36*
21,1,0.9000,0.6000,0,0,90.0*
21,1,0.6000,0.9000,0,0,90.0*
1,1,0.3000,0.3000,0.3000*
1,1,0.3000,0.3000,-0.3000*
1,1,0.3000,-0.3000,-0.3000*
1,1,0.3000,-0.3000,0.3000*
%
%ADD36ROUNDEDRECTD36*%
G04:AMPARAMS|DCode=37|XSize=1.09mm|YSize=0.98mm|CornerRadius=0.16mm|HoleSize=0mm|Usage=FLASHONLY|Rotation=0.000|XOffset=0mm|YOffset=0mm|HoleType=Round|Shape=RoundedRectangle|*
%AMROUNDEDRECTD37*
21,1,1.0900,0.6600,0,0,0.0*
21,1,0.7700,0.9800,0,0,0.0*
1,1,0.3200,0.3850,-0.3300*
1,1,0.3200,-0.3850,-0.3300*
1,1,0.3200,-0.3850,0.3300*
1,1,0.3200,0.3850,0.3300*
%
%ADD37ROUNDEDRECTD37*%
G04:AMPARAMS|DCode=38|XSize=0.7mm|YSize=0.9mm|CornerRadius=0.125mm|HoleSize=0mm|Usage=FLASHONLY|Rotation=270.000|XOffset=0mm|YOffset=0mm|HoleType=Round|Shape=RoundedRectangle|*
%AMROUNDEDRECTD38*
21,1,0.7000,0.6500,0,0,270.0*
21,1,0.4500,0.9000,0,0,270.0*
1,1,0.2500,-0.3250,-0.2250*
1,1,0.2500,-0.3250,0.2250*
1,1,0.2500,0.3250,0.2250*
1,1,0.2500,0.3250,-0.2250*
%
%ADD38ROUNDEDRECTD38*%
G04:AMPARAMS|DCode=39|XSize=0.9mm|YSize=0.9mm|CornerRadius=0.15mm|HoleSize=0mm|Usage=FLASHONLY|Rotation=180.000|XOffset=0mm|YOffset=0mm|HoleType=Round|Shape=RoundedRectangle|*
%AMROUNDEDRECTD39*
21,1,0.9000,0.6000,0,0,180.0*
21,1,0.6000,0.9000,0,0,180.0*
1,1,0.3000,-0.3000,0.3000*
1,1,0.3000,0.3000,0.3000*
1,1,0.3000,0.3000,-0.3000*
1,1,0.3000,-0.3000,-0.3000*
%
%ADD39ROUNDEDRECTD39*%
G04:AMPARAMS|DCode=40|XSize=1.15mm|YSize=1.15mm|CornerRadius=0.1813mm|HoleSize=0mm|Usage=FLASHONLY|Rotation=90.000|XOffset=0mm|YOffset=0mm|HoleType=Round|Shape=RoundedRectangle|*
%AMROUNDEDRECTD40*
21,1,1.1500,0.7875,0,0,90.0*
21,1,0.7875,1.1500,0,0,90.0*
1,1,0.3625,0.3938,0.3938*
1,1,0.3625,0.3938,-0.3938*
1,1,0.3625,-0.3938,-0.3938*
1,1,0.3625,-0.3938,0.3938*
%
%ADD40ROUNDEDRECTD40*%
G04:AMPARAMS|DCode=41|XSize=0.7mm|YSize=1.15mm|CornerRadius=0.125mm|HoleSize=0mm|Usage=FLASHONLY|Rotation=90.000|XOffset=0mm|YOffset=0mm|HoleType=Round|Shape=RoundedRectangle|*
%AMROUNDEDRECTD41*
21,1,0.7000,0.9000,0,0,90.0*
21,1,0.4500,1.1500,0,0,90.0*
1,1,0.2500,0.4500,0.2250*
1,1,0.2500,0.4500,-0.2250*
1,1,0.2500,-0.4500,-0.2250*
1,1,0.2500,-0.4500,0.2250*
%
%ADD41ROUNDEDRECTD41*%
G04:AMPARAMS|DCode=42|XSize=1.6mm|YSize=1.65mm|CornerRadius=0.2375mm|HoleSize=0mm|Usage=FLASHONLY|Rotation=90.000|XOffset=0mm|YOffset=0mm|HoleType=Round|Shape=RoundedRectangle|*
%AMROUNDEDRECTD42*
21,1,1.6000,1.1750,0,0,90.0*
21,1,1.1250,1.6500,0,0,90.0*
1,1,0.4750,0.5875,0.5625*
1,1,0.4750,0.5875,-0.5625*
1,1,0.4750,-0.5875,-0.5625*
1,1,0.4750,-0.5875,0.5625*
%
%ADD42ROUNDEDRECTD42*%
G04:AMPARAMS|DCode=43|XSize=0.5mm|YSize=1.45mm|CornerRadius=0.1mm|HoleSize=0mm|Usage=FLASHONLY|Rotation=270.000|XOffset=0mm|YOffset=0mm|HoleType=Round|Shape=RoundedRectangle|*
%AMROUNDEDRECTD43*
21,1,0.5000,1.2500,0,0,270.0*
21,1,0.3000,1.4500,0,0,270.0*
1,1,0.2000,-0.6250,-0.1500*
1,1,0.2000,-0.6250,0.1500*
1,1,0.2000,0.6250,0.1500*
1,1,0.2000,0.6250,-0.1500*
%
%ADD43ROUNDEDRECTD43*%
G04:AMPARAMS|DCode=44|XSize=1.47mm|YSize=1.65mm|CornerRadius=0.2213mm|HoleSize=0mm|Usage=FLASHONLY|Rotation=270.000|XOffset=0mm|YOffset=0mm|HoleType=Round|Shape=RoundedRectangle|*
%AMROUNDEDRECTD44*
21,1,1.4700,1.2075,0,0,270.0*
21,1,1.0275,1.6500,0,0,270.0*
1,1,0.4425,-0.6038,-0.5138*
1,1,0.4425,-0.6038,0.5138*
1,1,0.4425,0.6038,0.5138*
1,1,0.4425,0.6038,-0.5138*
%
%ADD44ROUNDEDRECTD44*%
G04:AMPARAMS|DCode=45|XSize=0.7mm|YSize=1mm|CornerRadius=0.125mm|HoleSize=0mm|Usage=FLASHONLY|Rotation=0.000|XOffset=0mm|YOffset=0mm|HoleType=Round|Shape=RoundedRectangle|*
%AMROUNDEDRECTD45*
21,1,0.7000,0.7500,0,0,0.0*
21,1,0.4500,1.0000,0,0,0.0*
1,1,0.2500,0.2250,-0.3750*
1,1,0.2500,-0.2250,-0.3750*
1,1,0.2500,-0.2250,0.3750*
1,1,0.2500,0.2250,0.3750*
%
%ADD45ROUNDEDRECTD45*%
G04:AMPARAMS|DCode=46|XSize=1mm|YSize=1.1mm|CornerRadius=0.1625mm|HoleSize=0mm|Usage=FLASHONLY|Rotation=270.000|XOffset=0mm|YOffset=0mm|HoleType=Round|Shape=RoundedRectangle|*
%AMROUNDEDRECTD46*
21,1,1.0000,0.7750,0,0,270.0*
21,1,0.6750,1.1000,0,0,270.0*
1,1,0.3250,-0.3875,-0.3375*
1,1,0.3250,-0.3875,0.3375*
1,1,0.3250,0.3875,0.3375*
1,1,0.3250,0.3875,-0.3375*
%
%ADD46ROUNDEDRECTD46*%
%ADD47O,0.9500X0.3500*%
%ADD48O,0.3500X0.9500*%
G04:AMPARAMS|DCode=49|XSize=3.7mm|YSize=3.7mm|CornerRadius=0.23mm|HoleSize=0mm|Usage=FLASHONLY|Rotation=180.000|XOffset=0mm|YOffset=0mm|HoleType=Round|Shape=RoundedRectangle|*
%AMROUNDEDRECTD49*
21,1,3.7000,3.2400,0,0,180.0*
21,1,3.2400,3.7000,0,0,180.0*
1,1,0.4600,-1.6200,1.6200*
1,1,0.4600,1.6200,1.6200*
1,1,0.4600,1.6200,-1.6200*
1,1,0.4600,-1.6200,-1.6200*
%
%ADD49ROUNDEDRECTD49*%
G04:AMPARAMS|DCode=50|XSize=0.7mm|YSize=1.1mm|CornerRadius=0.125mm|HoleSize=0mm|Usage=FLASHONLY|Rotation=90.000|XOffset=0mm|YOffset=0mm|HoleType=Round|Shape=RoundedRectangle|*
%AMROUNDEDRECTD50*
21,1,0.7000,0.8500,0,0,90.0*
21,1,0.4500,1.1000,0,0,90.0*
1,1,0.2500,0.4250,0.2250*
1,1,0.2500,0.4250,-0.2250*
1,1,0.2500,-0.4250,-0.2250*
1,1,0.2500,-0.4250,0.2250*
%
%ADD50ROUNDEDRECTD50*%
G04:AMPARAMS|DCode=51|XSize=2.08mm|YSize=2.08mm|CornerRadius=0.248mm|HoleSize=0mm|Usage=FLASHONLY|Rotation=270.000|XOffset=0mm|YOffset=0mm|HoleType=Round|Shape=RoundedRectangle|*
%AMROUNDEDRECTD51*
21,1,2.0800,1.5840,0,0,270.0*
21,1,1.5840,2.0800,0,0,270.0*
1,1,0.4960,-0.7920,-0.7920*
1,1,0.4960,-0.7920,0.7920*
1,1,0.4960,0.7920,0.7920*
1,1,0.4960,0.7920,-0.7920*
%
%ADD51ROUNDEDRECTD51*%
%ADD52O,1.0000X0.3500*%
%ADD53O,0.3500X1.0000*%
%ADD54C,2.1000*%
%ADD55R,2.1000X2.1000*%
%ADD56R,1.1000X1.1000*%
G04:AMPARAMS|DCode=57|XSize=1.35mm|YSize=1.15mm|CornerRadius=0.575mm|HoleSize=0mm|Usage=FLASHONLY|Rotation=270.000|XOffset=0mm|YOffset=0mm|HoleType=Round|Shape=RoundedRectangle|*
%AMROUNDEDRECTD57*
21,1,1.3500,0.0000,0,0,270.0*
21,1,0.2000,1.1500,0,0,270.0*
1,1,1.1500,0.0000,-0.1000*
1,1,1.1500,0.0000,0.1000*
1,1,1.1500,0.0000,0.1000*
1,1,1.1500,0.0000,-0.1000*
%
%ADD57ROUNDEDRECTD57*%
G04:AMPARAMS|DCode=58|XSize=1.65mm|YSize=1.15mm|CornerRadius=0.575mm|HoleSize=0mm|Usage=FLASHONLY|Rotation=180.000|XOffset=0mm|YOffset=0mm|HoleType=Round|Shape=RoundedRectangle|*
%AMROUNDEDRECTD58*
21,1,1.6500,0.0000,0,0,180.0*
21,1,0.5000,1.1500,0,0,180.0*
1,1,1.1500,-0.2500,0.0000*
1,1,1.1500,0.2500,0.0000*
1,1,1.1500,0.2500,0.0000*
1,1,1.1500,-0.2500,0.0000*
%
%ADD58ROUNDEDRECTD58*%
%ADD59R,1.1000X1.1000*%
D34*
X200613Y270426D02*
D03*
X239777Y245324D02*
D03*
X305000Y222500D02*
D03*
X276407Y211634D02*
D03*
X239672Y209672D02*
D03*
X213509Y201275D02*
D03*
X214201Y174671D02*
D03*
X130732Y178009D02*
D03*
X145400Y20000D02*
D03*
Y32700D02*
D03*
X132700Y20000D02*
D03*
Y32700D02*
D03*
X120000Y20000D02*
D03*
Y32700D02*
D03*
X107300Y20000D02*
D03*
Y32700D02*
D03*
X94600D02*
D03*
X396350Y275400D02*
D03*
Y262700D02*
D03*
X383650D02*
D03*
X396350Y250000D02*
D03*
X383650D02*
D03*
X396350Y237300D02*
D03*
X383650D02*
D03*
X396350Y224600D02*
D03*
X383650D02*
D03*
D35*
X127500Y60500D02*
D03*
Y75500D02*
D03*
X85500Y60500D02*
D03*
Y75500D02*
D03*
X363500Y273500D02*
D03*
Y288500D02*
D03*
X306500Y273500D02*
D03*
Y258500D02*
D03*
X228500Y57500D02*
D03*
Y72500D02*
D03*
X169500Y56000D02*
D03*
Y41000D02*
D03*
X249000Y131000D02*
D03*
Y146000D02*
D03*
X234500Y131000D02*
D03*
Y146000D02*
D03*
D36*
X141500Y84000D02*
D03*
Y69000D02*
D03*
X145000Y163000D02*
D03*
Y178000D02*
D03*
X68000Y270500D02*
D03*
Y285500D02*
D03*
X128500Y270500D02*
D03*
Y285500D02*
D03*
X185613Y285426D02*
D03*
Y270426D02*
D03*
X200500Y120000D02*
D03*
Y135000D02*
D03*
X118000Y115000D02*
D03*
Y100000D02*
D03*
Y144000D02*
D03*
Y129000D02*
D03*
D37*
X142500Y286150D02*
D03*
Y269850D02*
D03*
D38*
X329500Y43250D02*
D03*
Y28750D02*
D03*
X263000D02*
D03*
Y43250D02*
D03*
X113500Y75250D02*
D03*
Y60750D02*
D03*
X99500D02*
D03*
Y75250D02*
D03*
D39*
X170000Y83500D02*
D03*
X155000D02*
D03*
X157114Y270926D02*
D03*
X172113D02*
D03*
X158500Y177500D02*
D03*
X173500D02*
D03*
X158500Y163500D02*
D03*
X173500D02*
D03*
X386258Y112500D02*
D03*
X371258D02*
D03*
X467500Y112500D02*
D03*
X452500D02*
D03*
X155000Y69500D02*
D03*
X170000D02*
D03*
X217113Y270426D02*
D03*
X232114D02*
D03*
D40*
X187750Y74500D02*
D03*
X347250Y222500D02*
D03*
Y256500D02*
D03*
D41*
X187750Y57500D02*
D03*
X212250D02*
D03*
Y76500D02*
D03*
X322750Y220500D02*
D03*
Y239500D02*
D03*
X347250D02*
D03*
X322750Y254500D02*
D03*
Y273500D02*
D03*
X347250D02*
D03*
D42*
X21500Y90000D02*
D03*
Y70000D02*
D03*
Y210000D02*
D03*
Y230000D02*
D03*
D43*
X48500Y93000D02*
D03*
Y86500D02*
D03*
Y67000D02*
D03*
Y73500D02*
D03*
Y80000D02*
D03*
Y220000D02*
D03*
Y213500D02*
D03*
Y207000D02*
D03*
Y226500D02*
D03*
Y233000D02*
D03*
D44*
X21500Y50250D02*
D03*
Y109750D02*
D03*
Y249750D02*
D03*
Y190250D02*
D03*
D45*
X89500Y115000D02*
D03*
X104500D02*
D03*
X169000Y13500D02*
D03*
X184000D02*
D03*
X386258Y84500D02*
D03*
X371258D02*
D03*
X169000Y27500D02*
D03*
X184000D02*
D03*
X371258Y98500D02*
D03*
X386258D02*
D03*
X452500Y98500D02*
D03*
X467500D02*
D03*
X104500Y129000D02*
D03*
X89500D02*
D03*
X467500Y84500D02*
D03*
X452500D02*
D03*
D46*
X452750Y19500D02*
D03*
X467250D02*
D03*
X452750Y60500D02*
D03*
X467250D02*
D03*
X385508Y60500D02*
D03*
X371008D02*
D03*
X385508Y19500D02*
D03*
X371008D02*
D03*
D47*
X179000Y204500D02*
D03*
Y209500D02*
D03*
Y214500D02*
D03*
Y219500D02*
D03*
Y224500D02*
D03*
Y229500D02*
D03*
Y234500D02*
D03*
Y239500D02*
D03*
X131000D02*
D03*
Y234500D02*
D03*
Y229500D02*
D03*
Y224500D02*
D03*
Y219500D02*
D03*
Y214500D02*
D03*
Y209500D02*
D03*
Y204500D02*
D03*
D48*
X172500Y246000D02*
D03*
X167500D02*
D03*
X162500D02*
D03*
X157500D02*
D03*
X152500D02*
D03*
X147500D02*
D03*
X142500D02*
D03*
X137500D02*
D03*
Y198000D02*
D03*
X142500D02*
D03*
X147500D02*
D03*
X152500D02*
D03*
X157500D02*
D03*
X162500D02*
D03*
X167500D02*
D03*
X172500D02*
D03*
D49*
X155000Y222000D02*
D03*
D50*
X111100Y285500D02*
D03*
Y266500D02*
D03*
X84900D02*
D03*
Y276000D02*
D03*
Y285500D02*
D03*
D51*
X160000Y125000D02*
D03*
D52*
X178750Y135000D02*
D03*
Y130000D02*
D03*
Y125000D02*
D03*
Y120000D02*
D03*
Y115000D02*
D03*
X141250D02*
D03*
Y120000D02*
D03*
Y125000D02*
D03*
Y130000D02*
D03*
Y135000D02*
D03*
D53*
X170000Y106250D02*
D03*
X165000D02*
D03*
X160000D02*
D03*
X155000D02*
D03*
X150000D02*
D03*
Y143750D02*
D03*
X155000D02*
D03*
X160000D02*
D03*
X165000D02*
D03*
X170000D02*
D03*
D54*
X467700Y194600D02*
D03*
X442300D02*
D03*
X467700Y245400D02*
D03*
X442300D02*
D03*
X467700Y270800D02*
D03*
X442300Y220000D02*
D03*
X467700D02*
D03*
X442300Y169200D02*
D03*
X467700D02*
D03*
D55*
X442300Y270800D02*
D03*
D56*
X94600Y20000D02*
D03*
D57*
X48500Y105000D02*
D03*
Y55000D02*
D03*
Y195000D02*
D03*
Y245000D02*
D03*
D58*
X21500Y115000D02*
D03*
Y45000D02*
D03*
Y185000D02*
D03*
Y255000D02*
D03*
D59*
X383650Y275400D02*
D03*
M02*
